%TF.GenerationSoftware,KiCad,Pcbnew,(5.1.6-0)*%
%TF.CreationDate,2023-05-08T15:40:48-07:00*%
%TF.ProjectId,LM1876x2_bal,4c4d3138-3736-4783-925f-62616c2e6b69,rev?*%
%TF.SameCoordinates,Original*%
%TF.FileFunction,Paste,Top*%
%TF.FilePolarity,Positive*%
%FSLAX46Y46*%
G04 Gerber Fmt 4.6, Leading zero omitted, Abs format (unit mm)*
G04 Created by KiCad (PCBNEW (5.1.6-0)) date 2023-05-08 15:40:48*
%MOMM*%
%LPD*%
G01*
G04 APERTURE LIST*
G04 APERTURE END LIST*
%TO.C,R4*%
G36*
G01*
X142625000Y-74525000D02*
X143875000Y-74525000D01*
G75*
G02*
X144125000Y-74775000I0J-250000D01*
G01*
X144125000Y-75700000D01*
G75*
G02*
X143875000Y-75950000I-250000J0D01*
G01*
X142625000Y-75950000D01*
G75*
G02*
X142375000Y-75700000I0J250000D01*
G01*
X142375000Y-74775000D01*
G75*
G02*
X142625000Y-74525000I250000J0D01*
G01*
G37*
G36*
G01*
X142625000Y-71550000D02*
X143875000Y-71550000D01*
G75*
G02*
X144125000Y-71800000I0J-250000D01*
G01*
X144125000Y-72725000D01*
G75*
G02*
X143875000Y-72975000I-250000J0D01*
G01*
X142625000Y-72975000D01*
G75*
G02*
X142375000Y-72725000I0J250000D01*
G01*
X142375000Y-71800000D01*
G75*
G02*
X142625000Y-71550000I250000J0D01*
G01*
G37*
%TD*%
%TO.C,R8*%
G36*
G01*
X141125000Y-72975000D02*
X139875000Y-72975000D01*
G75*
G02*
X139625000Y-72725000I0J250000D01*
G01*
X139625000Y-71800000D01*
G75*
G02*
X139875000Y-71550000I250000J0D01*
G01*
X141125000Y-71550000D01*
G75*
G02*
X141375000Y-71800000I0J-250000D01*
G01*
X141375000Y-72725000D01*
G75*
G02*
X141125000Y-72975000I-250000J0D01*
G01*
G37*
G36*
G01*
X141125000Y-75950000D02*
X139875000Y-75950000D01*
G75*
G02*
X139625000Y-75700000I0J250000D01*
G01*
X139625000Y-74775000D01*
G75*
G02*
X139875000Y-74525000I250000J0D01*
G01*
X141125000Y-74525000D01*
G75*
G02*
X141375000Y-74775000I0J-250000D01*
G01*
X141375000Y-75700000D01*
G75*
G02*
X141125000Y-75950000I-250000J0D01*
G01*
G37*
%TD*%
%TO.C,R7*%
G36*
G01*
X149375000Y-72975000D02*
X148125000Y-72975000D01*
G75*
G02*
X147875000Y-72725000I0J250000D01*
G01*
X147875000Y-71800000D01*
G75*
G02*
X148125000Y-71550000I250000J0D01*
G01*
X149375000Y-71550000D01*
G75*
G02*
X149625000Y-71800000I0J-250000D01*
G01*
X149625000Y-72725000D01*
G75*
G02*
X149375000Y-72975000I-250000J0D01*
G01*
G37*
G36*
G01*
X149375000Y-75950000D02*
X148125000Y-75950000D01*
G75*
G02*
X147875000Y-75700000I0J250000D01*
G01*
X147875000Y-74775000D01*
G75*
G02*
X148125000Y-74525000I250000J0D01*
G01*
X149375000Y-74525000D01*
G75*
G02*
X149625000Y-74775000I0J-250000D01*
G01*
X149625000Y-75700000D01*
G75*
G02*
X149375000Y-75950000I-250000J0D01*
G01*
G37*
%TD*%
%TO.C,R6*%
G36*
G01*
X130125000Y-72975000D02*
X128875000Y-72975000D01*
G75*
G02*
X128625000Y-72725000I0J250000D01*
G01*
X128625000Y-71800000D01*
G75*
G02*
X128875000Y-71550000I250000J0D01*
G01*
X130125000Y-71550000D01*
G75*
G02*
X130375000Y-71800000I0J-250000D01*
G01*
X130375000Y-72725000D01*
G75*
G02*
X130125000Y-72975000I-250000J0D01*
G01*
G37*
G36*
G01*
X130125000Y-75950000D02*
X128875000Y-75950000D01*
G75*
G02*
X128625000Y-75700000I0J250000D01*
G01*
X128625000Y-74775000D01*
G75*
G02*
X128875000Y-74525000I250000J0D01*
G01*
X130125000Y-74525000D01*
G75*
G02*
X130375000Y-74775000I0J-250000D01*
G01*
X130375000Y-75700000D01*
G75*
G02*
X130125000Y-75950000I-250000J0D01*
G01*
G37*
%TD*%
%TO.C,R5*%
G36*
G01*
X138375000Y-72975000D02*
X137125000Y-72975000D01*
G75*
G02*
X136875000Y-72725000I0J250000D01*
G01*
X136875000Y-71800000D01*
G75*
G02*
X137125000Y-71550000I250000J0D01*
G01*
X138375000Y-71550000D01*
G75*
G02*
X138625000Y-71800000I0J-250000D01*
G01*
X138625000Y-72725000D01*
G75*
G02*
X138375000Y-72975000I-250000J0D01*
G01*
G37*
G36*
G01*
X138375000Y-75950000D02*
X137125000Y-75950000D01*
G75*
G02*
X136875000Y-75700000I0J250000D01*
G01*
X136875000Y-74775000D01*
G75*
G02*
X137125000Y-74525000I250000J0D01*
G01*
X138375000Y-74525000D01*
G75*
G02*
X138625000Y-74775000I0J-250000D01*
G01*
X138625000Y-75700000D01*
G75*
G02*
X138375000Y-75950000I-250000J0D01*
G01*
G37*
%TD*%
%TO.C,R3*%
G36*
G01*
X145375000Y-74525000D02*
X146625000Y-74525000D01*
G75*
G02*
X146875000Y-74775000I0J-250000D01*
G01*
X146875000Y-75700000D01*
G75*
G02*
X146625000Y-75950000I-250000J0D01*
G01*
X145375000Y-75950000D01*
G75*
G02*
X145125000Y-75700000I0J250000D01*
G01*
X145125000Y-74775000D01*
G75*
G02*
X145375000Y-74525000I250000J0D01*
G01*
G37*
G36*
G01*
X145375000Y-71550000D02*
X146625000Y-71550000D01*
G75*
G02*
X146875000Y-71800000I0J-250000D01*
G01*
X146875000Y-72725000D01*
G75*
G02*
X146625000Y-72975000I-250000J0D01*
G01*
X145375000Y-72975000D01*
G75*
G02*
X145125000Y-72725000I0J250000D01*
G01*
X145125000Y-71800000D01*
G75*
G02*
X145375000Y-71550000I250000J0D01*
G01*
G37*
%TD*%
%TO.C,R2*%
G36*
G01*
X131625000Y-74525000D02*
X132875000Y-74525000D01*
G75*
G02*
X133125000Y-74775000I0J-250000D01*
G01*
X133125000Y-75700000D01*
G75*
G02*
X132875000Y-75950000I-250000J0D01*
G01*
X131625000Y-75950000D01*
G75*
G02*
X131375000Y-75700000I0J250000D01*
G01*
X131375000Y-74775000D01*
G75*
G02*
X131625000Y-74525000I250000J0D01*
G01*
G37*
G36*
G01*
X131625000Y-71550000D02*
X132875000Y-71550000D01*
G75*
G02*
X133125000Y-71800000I0J-250000D01*
G01*
X133125000Y-72725000D01*
G75*
G02*
X132875000Y-72975000I-250000J0D01*
G01*
X131625000Y-72975000D01*
G75*
G02*
X131375000Y-72725000I0J250000D01*
G01*
X131375000Y-71800000D01*
G75*
G02*
X131625000Y-71550000I250000J0D01*
G01*
G37*
%TD*%
%TO.C,R1*%
G36*
G01*
X134375000Y-74525000D02*
X135625000Y-74525000D01*
G75*
G02*
X135875000Y-74775000I0J-250000D01*
G01*
X135875000Y-75700000D01*
G75*
G02*
X135625000Y-75950000I-250000J0D01*
G01*
X134375000Y-75950000D01*
G75*
G02*
X134125000Y-75700000I0J250000D01*
G01*
X134125000Y-74775000D01*
G75*
G02*
X134375000Y-74525000I250000J0D01*
G01*
G37*
G36*
G01*
X134375000Y-71550000D02*
X135625000Y-71550000D01*
G75*
G02*
X135875000Y-71800000I0J-250000D01*
G01*
X135875000Y-72725000D01*
G75*
G02*
X135625000Y-72975000I-250000J0D01*
G01*
X134375000Y-72975000D01*
G75*
G02*
X134125000Y-72725000I0J250000D01*
G01*
X134125000Y-71800000D01*
G75*
G02*
X134375000Y-71550000I250000J0D01*
G01*
G37*
%TD*%
%TO.C,C8*%
G36*
G01*
X140125000Y-59025000D02*
X141375000Y-59025000D01*
G75*
G02*
X141625000Y-59275000I0J-250000D01*
G01*
X141625000Y-60200000D01*
G75*
G02*
X141375000Y-60450000I-250000J0D01*
G01*
X140125000Y-60450000D01*
G75*
G02*
X139875000Y-60200000I0J250000D01*
G01*
X139875000Y-59275000D01*
G75*
G02*
X140125000Y-59025000I250000J0D01*
G01*
G37*
G36*
G01*
X140125000Y-56050000D02*
X141375000Y-56050000D01*
G75*
G02*
X141625000Y-56300000I0J-250000D01*
G01*
X141625000Y-57225000D01*
G75*
G02*
X141375000Y-57475000I-250000J0D01*
G01*
X140125000Y-57475000D01*
G75*
G02*
X139875000Y-57225000I0J250000D01*
G01*
X139875000Y-56300000D01*
G75*
G02*
X140125000Y-56050000I250000J0D01*
G01*
G37*
%TD*%
%TO.C,C7*%
G36*
G01*
X140125000Y-64025000D02*
X141375000Y-64025000D01*
G75*
G02*
X141625000Y-64275000I0J-250000D01*
G01*
X141625000Y-65200000D01*
G75*
G02*
X141375000Y-65450000I-250000J0D01*
G01*
X140125000Y-65450000D01*
G75*
G02*
X139875000Y-65200000I0J250000D01*
G01*
X139875000Y-64275000D01*
G75*
G02*
X140125000Y-64025000I250000J0D01*
G01*
G37*
G36*
G01*
X140125000Y-61050000D02*
X141375000Y-61050000D01*
G75*
G02*
X141625000Y-61300000I0J-250000D01*
G01*
X141625000Y-62225000D01*
G75*
G02*
X141375000Y-62475000I-250000J0D01*
G01*
X140125000Y-62475000D01*
G75*
G02*
X139875000Y-62225000I0J250000D01*
G01*
X139875000Y-61300000D01*
G75*
G02*
X140125000Y-61050000I250000J0D01*
G01*
G37*
%TD*%
%TO.C,C5*%
G36*
G01*
X116625000Y-61525000D02*
X117875000Y-61525000D01*
G75*
G02*
X118125000Y-61775000I0J-250000D01*
G01*
X118125000Y-62700000D01*
G75*
G02*
X117875000Y-62950000I-250000J0D01*
G01*
X116625000Y-62950000D01*
G75*
G02*
X116375000Y-62700000I0J250000D01*
G01*
X116375000Y-61775000D01*
G75*
G02*
X116625000Y-61525000I250000J0D01*
G01*
G37*
G36*
G01*
X116625000Y-58550000D02*
X117875000Y-58550000D01*
G75*
G02*
X118125000Y-58800000I0J-250000D01*
G01*
X118125000Y-59725000D01*
G75*
G02*
X117875000Y-59975000I-250000J0D01*
G01*
X116625000Y-59975000D01*
G75*
G02*
X116375000Y-59725000I0J250000D01*
G01*
X116375000Y-58800000D01*
G75*
G02*
X116625000Y-58550000I250000J0D01*
G01*
G37*
%TD*%
M02*
