M48
; DRILL file {KiCad (5.1.6-0)} date Monday, May 08, 2023 at 09:30:59 PM
; FORMAT={-:-/ absolute / inch / decimal}
; #@! TF.CreationDate,2023-05-08T21:30:59-07:00
; #@! TF.GenerationSoftware,Kicad,Pcbnew,(5.1.6-0)
; #@! TF.FileFunction,Plated,1,2,PTH
FMAT,2
INCH
T1C0.0118
T2C0.0197
T3C0.0315
T4C0.0394
T5C0.0472
T6C0.0512
T7C0.0551
T8C0.1378
%
G90
G05
T1
X3.1017Y-3.4072
X3.1017Y-3.5647
X3.1804Y-3.4859
X3.2198Y-3.604
X3.2591Y-3.4072
X3.2985Y-3.5253
X3.3379Y-3.6434
X3.3772Y-2.3442
X3.3772Y-3.4466
X3.3772Y-3.8796
X3.4166Y-3.5647
X3.4166Y-3.7221
X3.456Y-2.2655
X3.456Y-2.8954
X3.4954Y-3.0135
X3.4954Y-3.4072
X3.4954Y-3.6434
X3.4954Y-3.8009
X3.5347Y-2.8166
X3.5347Y-3.5253
X3.5741Y-2.9347
X3.5741Y-3.7221
X3.5741Y-3.8796
X3.6135Y-2.7379
X3.6135Y-3.604
X3.6528Y-2.856
X3.6528Y-3.0135
X3.6528Y-3.4859
X3.6528Y-3.8009
X3.6922Y-2.6592
X3.6922Y-3.6828
X3.7316Y-2.7773
X3.7316Y-2.9347
X3.7316Y-3.5647
X3.7316Y-3.8796
X3.8103Y-2.856
X3.8103Y-3.4859
X3.8891Y-2.7773
X3.9284Y-3.5253
X3.9678Y-3.6434
X3.9678Y-3.8403
X4.2828Y-3.171
X4.3221Y-2.8166
X4.3221Y-2.9741
X4.3615Y-2.6592
X4.3615Y-3.0922
X4.3615Y-3.7615
X4.4009Y-2.8954
X4.4009Y-3.8796
X4.4402Y-3.0135
X4.4402Y-3.171
X4.4402Y-3.6828
X4.4796Y-2.8166
X4.4796Y-3.8009
X4.519Y-2.9347
X4.519Y-3.0922
X4.519Y-3.604
X4.5477Y-2.3332
X4.5584Y-3.4072
X4.5584Y-3.7221
X4.5584Y-3.8796
X4.5977Y-2.6592
X4.5977Y-2.856
X4.5977Y-3.0135
X4.5977Y-3.171
X4.5977Y-3.5253
X4.6371Y-3.6434
X4.6371Y-3.8009
X4.6765Y-2.9347
X4.6765Y-3.0922
X4.6845Y-2.2347
X4.7158Y-2.8166
X4.7158Y-3.5647
X4.7158Y-3.7221
X4.7158Y-3.8796
X4.7552Y-3.0135
X4.7552Y-3.171
X4.7933Y-2.6378
X4.7946Y-2.6985
X4.7946Y-2.8954
X4.8327Y-2.4409
X4.8339Y-3.0922
X4.8622Y-2.7756
X4.8733Y-2.9741
X4.8819Y-2.3917
X4.8819Y-2.4409
X4.9127Y-3.171
X4.9311Y-2.3917
X4.9311Y-2.4409
X4.9521Y-3.0529
X4.9914Y-2.7773
X5.0Y-2.628
X5.0295Y-2.3917
X5.0295Y-2.4409
X5.0308Y-3.1316
X5.0702Y-3.2497
X5.0702Y-3.4072
X5.0702Y-3.5647
X5.0702Y-3.7221
X5.0702Y-3.8796
X5.0984Y-2.7854
X5.1181Y-2.3917
X5.1181Y-2.4409
X5.1181Y-2.6575
X5.1476Y-2.9035
X5.1489Y-3.171
X5.1489Y-3.3284
X5.1489Y-3.4859
X5.1489Y-3.6434
X5.1489Y-3.8009
X5.1673Y-2.3917
X5.1673Y-2.4311
X5.1673Y-2.6575
X5.1673Y-3.0512
X5.2067Y-2.7854
X5.2165Y-2.3917
X5.2165Y-2.4311
X5.2165Y-2.6575
X5.2276Y-3.0529
X5.2276Y-3.2497
X5.2276Y-3.4072
X5.2276Y-3.5647
X5.2276Y-3.8796
X5.2657Y-2.6575
X5.2657Y-2.9035
X5.267Y-3.6828
X5.3051Y-2.7165
X5.315Y-2.3917
X5.315Y-2.4311
X5.315Y-2.6575
X5.315Y-3.189
X5.3248Y-3.376
X5.3445Y-3.5925
X5.3458Y-2.7773
X5.3458Y-3.0922
X5.3851Y-3.8796
X5.3937Y-3.3366
X5.4067Y-2.3917
X5.4067Y-2.4311
X5.4232Y-3.0217
X5.4232Y-3.4154
X5.4245Y-3.171
X5.4331Y-2.687
X5.4331Y-3.5236
X5.4429Y-2.7854
X5.4639Y-3.6828
X5.4724Y-3.3563
X5.4823Y-2.687
X5.4921Y-3.0217
X5.4921Y-3.0906
X5.4921Y-3.2283
X5.5315Y-2.687
X5.5315Y-2.7854
X5.5315Y-3.0217
X5.5315Y-3.0906
X5.5315Y-3.4154
X5.5413Y-2.4902
X5.5426Y-3.604
X5.5426Y-3.8796
X5.5512Y-3.3169
X5.5807Y-2.687
X5.6004Y-2.2933
X5.6004Y-2.3917
X5.6004Y-2.4902
X5.6201Y-3.0413
X5.6213Y-3.6828
X5.6299Y-2.7854
X5.6299Y-3.3858
X5.6398Y-3.2185
X5.6607Y-3.5647
X5.6607Y-3.8009
X5.6988Y-3.8976
X5.7087Y-2.5394
X5.7087Y-3.1594
X5.7185Y-2.7264
X5.7283Y-2.5984
X5.7382Y-3.7106
X5.7395Y-3.0529
X5.748Y-2.7756
X5.748Y-3.3858
X5.7776Y-2.7362
X5.7788Y-3.604
X5.7972Y-2.9035
X5.7972Y-3.8091
X5.8071Y-2.7756
X5.8182Y-3.1316
X5.8182Y-3.3284
X5.8268Y-3.2185
X5.8465Y-2.2343
X5.8465Y-2.2933
X5.8563Y-3.0217
X5.8563Y-3.7008
X5.8576Y-3.4466
X5.8661Y-3.8976
X5.876Y-2.4508
X5.8969Y-3.5647
X5.9154Y-3.2677
X5.9252Y-2.9626
X5.9252Y-3.0807
X5.9252Y-3.1693
X5.9363Y-3.3678
X5.9449Y-2.7264
X5.9449Y-2.9035
X5.9843Y-3.4843
X6.0138Y-3.5925
X6.0335Y-3.3169
X6.0531Y-3.0217
X6.0827Y-3.4055
X6.1024Y-2.6083
X6.1024Y-2.6772
X6.1024Y-2.7461
X6.1024Y-3.5138
X6.1319Y-2.8937
X6.1319Y-2.9823
X6.1319Y-3.0709
X6.1319Y-3.1496
X6.1516Y-2.6378
X6.1516Y-2.7953
X6.1516Y-3.2874
T2
X3.0955Y-2.4114
X3.1257Y-2.3383
X3.1257Y-2.4845
X3.1988Y-2.3081
X3.1988Y-2.5148
X3.2719Y-2.3383
X3.2719Y-2.4845
X3.3022Y-2.4114
X5.9498Y-3.7894
X5.9801Y-3.7163
X5.9801Y-3.8624
X6.0531Y-3.686
X6.0531Y-3.8927
X6.1262Y-3.7163
X6.1262Y-3.8624
X6.1565Y-3.7894
X3.0955Y-3.7894
X3.1257Y-3.7163
X3.1257Y-3.8624
X3.1988Y-3.686
X3.1988Y-3.8927
X3.2719Y-3.7163
X3.2719Y-3.8624
X3.3022Y-3.7894
X5.9498Y-2.4114
X5.9801Y-2.3383
X5.9801Y-2.4845
X6.0531Y-2.3081
X6.0531Y-2.5148
X6.1262Y-2.3383
X6.1262Y-2.4845
X6.1565Y-2.4114
T3
X5.3248Y-3.2776
X5.3248Y-3.4744
X6.0433Y-3.1102
X6.0433Y-3.2087
X5.748Y-3.2776
X5.748Y-3.4744
X4.3799Y-2.5787
X4.5768Y-2.5787
T4
X5.2953Y-3.7795
X5.4331Y-3.7795
X5.5709Y-3.7795
X4.7244Y-2.5197
X4.7744Y-2.3197
X4.8244Y-2.5197
X4.8744Y-2.3197
X4.9244Y-2.5197
X4.9744Y-2.3197
X5.0244Y-2.5197
X5.0744Y-2.3197
X5.1244Y-2.5197
X5.1744Y-2.3197
X5.2244Y-2.5197
X5.2744Y-2.3197
X5.3244Y-2.5197
X5.3744Y-2.3197
X5.4244Y-2.5197
X6.0433Y-2.8346
X6.0433Y-2.9346
T5
X4.4252Y-3.472
X4.9252Y-3.772
X4.4882Y-2.6969
X4.4882Y-3.2969
X3.8386Y-2.3524
X3.8386Y-2.6476
X4.2717Y-2.6969
X4.2717Y-3.2969
X3.8386Y-3.0118
X3.8386Y-3.3071
X4.9213Y-2.6972
X4.9213Y-3.2972
X4.7047Y-2.6972
X4.7047Y-3.2972
T6
X3.248Y-2.7559
X3.248Y-2.9528
X3.248Y-3.1496
X3.9075Y-3.7402
X4.1043Y-3.7402
T7
X4.1732Y-3.6402
X4.1732Y-3.8402
X3.8386Y-3.6402
X3.8386Y-3.8402
X3.148Y-2.687
X3.348Y-2.687
X3.148Y-2.9528
X3.348Y-2.9528
X3.148Y-3.2185
X3.348Y-3.2185
T8
X3.1988Y-3.7894
X6.0531Y-2.4114
X3.1988Y-2.4114
X6.0531Y-3.7894
T0
M30
