%TF.GenerationSoftware,KiCad,Pcbnew,(5.1.6-0)*%
%TF.CreationDate,2023-05-10T15:53:48-07:00*%
%TF.ProjectId,LM1876x2_bal,4c4d3138-3736-4783-925f-62616c2e6b69,rev?*%
%TF.SameCoordinates,Original*%
%TF.FileFunction,Legend,Bot*%
%TF.FilePolarity,Positive*%
%FSLAX46Y46*%
G04 Gerber Fmt 4.6, Leading zero omitted, Abs format (unit mm)*
G04 Created by KiCad (PCBNEW (5.1.6-0)) date 2023-05-10 15:53:48*
%MOMM*%
%LPD*%
G01*
G04 APERTURE LIST*
%ADD10C,0.150000*%
%ADD11C,0.120000*%
G04 APERTURE END LIST*
D10*
X92190476Y-91702380D02*
X92523809Y-91226190D01*
X92761904Y-91702380D02*
X92761904Y-90702380D01*
X92380952Y-90702380D01*
X92285714Y-90750000D01*
X92238095Y-90797619D01*
X92190476Y-90892857D01*
X92190476Y-91035714D01*
X92238095Y-91130952D01*
X92285714Y-91178571D01*
X92380952Y-91226190D01*
X92761904Y-91226190D01*
X91380952Y-91654761D02*
X91476190Y-91702380D01*
X91666666Y-91702380D01*
X91761904Y-91654761D01*
X91809523Y-91559523D01*
X91809523Y-91178571D01*
X91761904Y-91083333D01*
X91666666Y-91035714D01*
X91476190Y-91035714D01*
X91380952Y-91083333D01*
X91333333Y-91178571D01*
X91333333Y-91273809D01*
X91809523Y-91369047D01*
X91000000Y-91035714D02*
X90761904Y-91702380D01*
X90523809Y-91035714D01*
X90190476Y-90797619D02*
X90142857Y-90750000D01*
X90047619Y-90702380D01*
X89809523Y-90702380D01*
X89714285Y-90750000D01*
X89666666Y-90797619D01*
X89619047Y-90892857D01*
X89619047Y-90988095D01*
X89666666Y-91130952D01*
X90238095Y-91702380D01*
X89619047Y-91702380D01*
X89190476Y-91607142D02*
X89142857Y-91654761D01*
X89190476Y-91702380D01*
X89238095Y-91654761D01*
X89190476Y-91607142D01*
X89190476Y-91702380D01*
X88523809Y-90702380D02*
X88428571Y-90702380D01*
X88333333Y-90750000D01*
X88285714Y-90797619D01*
X88238095Y-90892857D01*
X88190476Y-91083333D01*
X88190476Y-91321428D01*
X88238095Y-91511904D01*
X88285714Y-91607142D01*
X88333333Y-91654761D01*
X88428571Y-91702380D01*
X88523809Y-91702380D01*
X88619047Y-91654761D01*
X88666666Y-91607142D01*
X88714285Y-91511904D01*
X88761904Y-91321428D01*
X88761904Y-91083333D01*
X88714285Y-90892857D01*
X88666666Y-90797619D01*
X88619047Y-90750000D01*
X88523809Y-90702380D01*
X92702380Y-89702380D02*
X92702380Y-88702380D01*
X92369047Y-89416666D01*
X92035714Y-88702380D01*
X92035714Y-89702380D01*
X91130952Y-89702380D02*
X91130952Y-89178571D01*
X91178571Y-89083333D01*
X91273809Y-89035714D01*
X91464285Y-89035714D01*
X91559523Y-89083333D01*
X91130952Y-89654761D02*
X91226190Y-89702380D01*
X91464285Y-89702380D01*
X91559523Y-89654761D01*
X91607142Y-89559523D01*
X91607142Y-89464285D01*
X91559523Y-89369047D01*
X91464285Y-89321428D01*
X91226190Y-89321428D01*
X91130952Y-89273809D01*
X90750000Y-89035714D02*
X90511904Y-89702380D01*
X90273809Y-89035714D02*
X90511904Y-89702380D01*
X90607142Y-89940476D01*
X90654761Y-89988095D01*
X90750000Y-90035714D01*
X89178571Y-88797619D02*
X89130952Y-88750000D01*
X89035714Y-88702380D01*
X88797619Y-88702380D01*
X88702380Y-88750000D01*
X88654761Y-88797619D01*
X88607142Y-88892857D01*
X88607142Y-88988095D01*
X88654761Y-89130952D01*
X89226190Y-89702380D01*
X88607142Y-89702380D01*
X87988095Y-88702380D02*
X87892857Y-88702380D01*
X87797619Y-88750000D01*
X87750000Y-88797619D01*
X87702380Y-88892857D01*
X87654761Y-89083333D01*
X87654761Y-89321428D01*
X87702380Y-89511904D01*
X87750000Y-89607142D01*
X87797619Y-89654761D01*
X87892857Y-89702380D01*
X87988095Y-89702380D01*
X88083333Y-89654761D01*
X88130952Y-89607142D01*
X88178571Y-89511904D01*
X88226190Y-89321428D01*
X88226190Y-89083333D01*
X88178571Y-88892857D01*
X88130952Y-88797619D01*
X88083333Y-88750000D01*
X87988095Y-88702380D01*
X87273809Y-88797619D02*
X87226190Y-88750000D01*
X87130952Y-88702380D01*
X86892857Y-88702380D01*
X86797619Y-88750000D01*
X86750000Y-88797619D01*
X86702380Y-88892857D01*
X86702380Y-88988095D01*
X86750000Y-89130952D01*
X87321428Y-89702380D01*
X86702380Y-89702380D01*
X86369047Y-88702380D02*
X85750000Y-88702380D01*
X86083333Y-89083333D01*
X85940476Y-89083333D01*
X85845238Y-89130952D01*
X85797619Y-89178571D01*
X85750000Y-89273809D01*
X85750000Y-89511904D01*
X85797619Y-89607142D01*
X85845238Y-89654761D01*
X85940476Y-89702380D01*
X86226190Y-89702380D01*
X86321428Y-89654761D01*
X86369047Y-89607142D01*
D11*
%TO.C,C6*%
X116340000Y-57647936D02*
X116340000Y-58852064D01*
X118160000Y-57647936D02*
X118160000Y-58852064D01*
D10*
X115857142Y-58083333D02*
X115904761Y-58035714D01*
X115952380Y-57892857D01*
X115952380Y-57797619D01*
X115904761Y-57654761D01*
X115809523Y-57559523D01*
X115714285Y-57511904D01*
X115523809Y-57464285D01*
X115380952Y-57464285D01*
X115190476Y-57511904D01*
X115095238Y-57559523D01*
X115000000Y-57654761D01*
X114952380Y-57797619D01*
X114952380Y-57892857D01*
X115000000Y-58035714D01*
X115047619Y-58083333D01*
X114952380Y-58940476D02*
X114952380Y-58750000D01*
X115000000Y-58654761D01*
X115047619Y-58607142D01*
X115190476Y-58511904D01*
X115380952Y-58464285D01*
X115761904Y-58464285D01*
X115857142Y-58511904D01*
X115904761Y-58559523D01*
X115952380Y-58654761D01*
X115952380Y-58845238D01*
X115904761Y-58940476D01*
X115857142Y-58988095D01*
X115761904Y-59035714D01*
X115523809Y-59035714D01*
X115428571Y-58988095D01*
X115380952Y-58940476D01*
X115333333Y-58845238D01*
X115333333Y-58654761D01*
X115380952Y-58559523D01*
X115428571Y-58511904D01*
X115523809Y-58464285D01*
%TD*%
M02*
