%TF.GenerationSoftware,KiCad,Pcbnew,(5.1.6-0)*%
%TF.CreationDate,2023-05-10T15:53:48-07:00*%
%TF.ProjectId,LM1876x2_bal,4c4d3138-3736-4783-925f-62616c2e6b69,rev?*%
%TF.SameCoordinates,Original*%
%TF.FileFunction,Legend,Top*%
%TF.FilePolarity,Positive*%
%FSLAX46Y46*%
G04 Gerber Fmt 4.6, Leading zero omitted, Abs format (unit mm)*
G04 Created by KiCad (PCBNEW (5.1.6-0)) date 2023-05-10 15:53:48*
%MOMM*%
%LPD*%
G01*
G04 APERTURE LIST*
%ADD10C,0.150000*%
%ADD11C,0.120000*%
%ADD12C,0.500000*%
G04 APERTURE END LIST*
D10*
X155097619Y-69311904D02*
X154716666Y-69311904D01*
X154678571Y-69692857D01*
X154716666Y-69654761D01*
X154792857Y-69616666D01*
X154983333Y-69616666D01*
X155059523Y-69654761D01*
X155097619Y-69692857D01*
X155135714Y-69769047D01*
X155135714Y-69959523D01*
X155097619Y-70035714D01*
X155059523Y-70073809D01*
X154983333Y-70111904D01*
X154792857Y-70111904D01*
X154716666Y-70073809D01*
X154678571Y-70035714D01*
X155364285Y-69311904D02*
X155630952Y-70111904D01*
X155897619Y-69311904D01*
X156178571Y-91439270D02*
X156226190Y-91302366D01*
X156273809Y-91260699D01*
X156369047Y-91224985D01*
X156511904Y-91242842D01*
X156607142Y-91302366D01*
X156654761Y-91355937D01*
X156702380Y-91457127D01*
X156702380Y-91838080D01*
X155702380Y-91713080D01*
X155702380Y-91379747D01*
X155750000Y-91290461D01*
X155797619Y-91248794D01*
X155892857Y-91213080D01*
X155988095Y-91224985D01*
X156083333Y-91284508D01*
X156130952Y-91338080D01*
X156178571Y-91439270D01*
X156178571Y-91772604D01*
X156702380Y-90838080D02*
X156035714Y-90754747D01*
X155702380Y-90713080D02*
X155750000Y-90766651D01*
X155797619Y-90724985D01*
X155750000Y-90671413D01*
X155702380Y-90713080D01*
X155797619Y-90724985D01*
X156702380Y-90219032D02*
X156654761Y-90308318D01*
X156559523Y-90344032D01*
X155702380Y-90236889D01*
X156702380Y-89695223D02*
X156654761Y-89784508D01*
X156607142Y-89826175D01*
X156511904Y-89861889D01*
X156226190Y-89826175D01*
X156130952Y-89766651D01*
X156083333Y-89713080D01*
X156035714Y-89611889D01*
X156035714Y-89469032D01*
X156083333Y-89379747D01*
X156130952Y-89338080D01*
X156226190Y-89302366D01*
X156511904Y-89338080D01*
X156607142Y-89397604D01*
X156654761Y-89451175D01*
X156702380Y-89552366D01*
X156702380Y-89695223D01*
X156035714Y-88421413D02*
X156702380Y-88504747D01*
X156035714Y-88849985D02*
X156559523Y-88915461D01*
X156654761Y-88879747D01*
X156702380Y-88790461D01*
X156702380Y-88647604D01*
X156654761Y-88546413D01*
X156607142Y-88492842D01*
X156654761Y-88070223D02*
X156702380Y-87980937D01*
X156702380Y-87790461D01*
X156654761Y-87689270D01*
X156559523Y-87629747D01*
X156511904Y-87623794D01*
X156416666Y-87659508D01*
X156369047Y-87748794D01*
X156369047Y-87891651D01*
X156321428Y-87980937D01*
X156226190Y-88016651D01*
X156178571Y-88010699D01*
X156083333Y-87951175D01*
X156035714Y-87849985D01*
X156035714Y-87707127D01*
X156083333Y-87617842D01*
X156654761Y-86498794D02*
X156702380Y-86361889D01*
X156702380Y-86123794D01*
X156654761Y-86022604D01*
X156607142Y-85969032D01*
X156511904Y-85909508D01*
X156416666Y-85897604D01*
X156321428Y-85933318D01*
X156273809Y-85974985D01*
X156226190Y-86064270D01*
X156178571Y-86248794D01*
X156130952Y-86338080D01*
X156083333Y-86379747D01*
X155988095Y-86415461D01*
X155892857Y-86403556D01*
X155797619Y-86344032D01*
X155750000Y-86290461D01*
X155702380Y-86189270D01*
X155702380Y-85951175D01*
X155750000Y-85814270D01*
X156702380Y-85361889D02*
X156654761Y-85451175D01*
X156607142Y-85492842D01*
X156511904Y-85528556D01*
X156226190Y-85492842D01*
X156130952Y-85433318D01*
X156083333Y-85379747D01*
X156035714Y-85278556D01*
X156035714Y-85135699D01*
X156083333Y-85046413D01*
X156130952Y-85004747D01*
X156226190Y-84969032D01*
X156511904Y-85004747D01*
X156607142Y-85064270D01*
X156654761Y-85117842D01*
X156702380Y-85219032D01*
X156702380Y-85361889D01*
X156035714Y-84088080D02*
X156702380Y-84171413D01*
X156035714Y-84516651D02*
X156559523Y-84582127D01*
X156654761Y-84546413D01*
X156702380Y-84457127D01*
X156702380Y-84314270D01*
X156654761Y-84213080D01*
X156607142Y-84159508D01*
X156035714Y-83611889D02*
X156702380Y-83695223D01*
X156130952Y-83623794D02*
X156083333Y-83570223D01*
X156035714Y-83469032D01*
X156035714Y-83326175D01*
X156083333Y-83236889D01*
X156178571Y-83201175D01*
X156702380Y-83266651D01*
X156702380Y-82361889D02*
X155702380Y-82236889D01*
X156654761Y-82355937D02*
X156702380Y-82457127D01*
X156702380Y-82647604D01*
X156654761Y-82736889D01*
X156607142Y-82778556D01*
X156511904Y-82814270D01*
X156226190Y-82778556D01*
X156130952Y-82719032D01*
X156083333Y-82665461D01*
X156035714Y-82564270D01*
X156035714Y-82373794D01*
X156083333Y-82284508D01*
X88797619Y-79297619D02*
X87797619Y-79630952D01*
X88797619Y-79964285D01*
X88178571Y-80297619D02*
X88178571Y-81059523D01*
X87797619Y-80678571D02*
X88559523Y-80678571D01*
X88750000Y-74238095D02*
X88797619Y-74142857D01*
X88797619Y-74000000D01*
X88750000Y-73857142D01*
X88654761Y-73761904D01*
X88559523Y-73714285D01*
X88369047Y-73666666D01*
X88226190Y-73666666D01*
X88035714Y-73714285D01*
X87940476Y-73761904D01*
X87845238Y-73857142D01*
X87797619Y-74000000D01*
X87797619Y-74095238D01*
X87845238Y-74238095D01*
X87892857Y-74285714D01*
X88226190Y-74285714D01*
X88226190Y-74095238D01*
X87797619Y-74714285D02*
X88797619Y-74714285D01*
X87797619Y-75285714D01*
X88797619Y-75285714D01*
X87797619Y-75761904D02*
X88797619Y-75761904D01*
X88797619Y-76000000D01*
X88750000Y-76142857D01*
X88654761Y-76238095D01*
X88559523Y-76285714D01*
X88369047Y-76333333D01*
X88226190Y-76333333D01*
X88035714Y-76285714D01*
X87940476Y-76238095D01*
X87845238Y-76142857D01*
X87797619Y-76000000D01*
X87797619Y-75761904D01*
X88797619Y-68047619D02*
X87797619Y-68380952D01*
X88797619Y-68714285D01*
X88178571Y-69047619D02*
X88178571Y-69809523D01*
X97738095Y-88750000D02*
X97642857Y-88702380D01*
X97500000Y-88702380D01*
X97357142Y-88750000D01*
X97261904Y-88845238D01*
X97214285Y-88940476D01*
X97166666Y-89130952D01*
X97166666Y-89273809D01*
X97214285Y-89464285D01*
X97261904Y-89559523D01*
X97357142Y-89654761D01*
X97500000Y-89702380D01*
X97595238Y-89702380D01*
X97738095Y-89654761D01*
X97785714Y-89607142D01*
X97785714Y-89273809D01*
X97595238Y-89273809D01*
X98214285Y-89702380D02*
X98214285Y-88702380D01*
X98785714Y-89702380D01*
X98785714Y-88702380D01*
X99261904Y-89702380D02*
X99261904Y-88702380D01*
X99500000Y-88702380D01*
X99642857Y-88750000D01*
X99738095Y-88845238D01*
X99785714Y-88940476D01*
X99833333Y-89130952D01*
X99833333Y-89273809D01*
X99785714Y-89464285D01*
X99738095Y-89559523D01*
X99642857Y-89654761D01*
X99500000Y-89702380D01*
X99261904Y-89702380D01*
X104464285Y-89654761D02*
X104607142Y-89702380D01*
X104845238Y-89702380D01*
X104940476Y-89654761D01*
X104988095Y-89607142D01*
X105035714Y-89511904D01*
X105035714Y-89416666D01*
X104988095Y-89321428D01*
X104940476Y-89273809D01*
X104845238Y-89226190D01*
X104654761Y-89178571D01*
X104559523Y-89130952D01*
X104511904Y-89083333D01*
X104464285Y-88988095D01*
X104464285Y-88892857D01*
X104511904Y-88797619D01*
X104559523Y-88750000D01*
X104654761Y-88702380D01*
X104892857Y-88702380D01*
X105035714Y-88750000D01*
X105464285Y-89702380D02*
X105464285Y-88702380D01*
X105845238Y-88702380D01*
X105940476Y-88750000D01*
X105988095Y-88797619D01*
X106035714Y-88892857D01*
X106035714Y-89035714D01*
X105988095Y-89130952D01*
X105940476Y-89178571D01*
X105845238Y-89226190D01*
X105464285Y-89226190D01*
X106464285Y-89702380D02*
X106464285Y-88702380D01*
X107035714Y-89702380D02*
X106607142Y-89130952D01*
X107035714Y-88702380D02*
X106464285Y-89273809D01*
X140988095Y-91250000D02*
X140892857Y-91202380D01*
X140750000Y-91202380D01*
X140607142Y-91250000D01*
X140511904Y-91345238D01*
X140464285Y-91440476D01*
X140416666Y-91630952D01*
X140416666Y-91773809D01*
X140464285Y-91964285D01*
X140511904Y-92059523D01*
X140607142Y-92154761D01*
X140750000Y-92202380D01*
X140845238Y-92202380D01*
X140988095Y-92154761D01*
X141035714Y-92107142D01*
X141035714Y-91773809D01*
X140845238Y-91773809D01*
X141464285Y-92202380D02*
X141464285Y-91202380D01*
X142035714Y-92202380D01*
X142035714Y-91202380D01*
X142511904Y-92202380D02*
X142511904Y-91202380D01*
X142750000Y-91202380D01*
X142892857Y-91250000D01*
X142988095Y-91345238D01*
X143035714Y-91440476D01*
X143083333Y-91630952D01*
X143083333Y-91773809D01*
X143035714Y-91964285D01*
X142988095Y-92059523D01*
X142892857Y-92154761D01*
X142750000Y-92202380D01*
X142511904Y-92202380D01*
X136857142Y-92202380D02*
X136857142Y-91202380D01*
X137333333Y-92202380D02*
X137333333Y-91202380D01*
X137904761Y-92202380D01*
X137904761Y-91202380D01*
X138380952Y-91821428D02*
X139142857Y-91821428D01*
X138761904Y-92202380D02*
X138761904Y-91440476D01*
X132857142Y-92202380D02*
X132857142Y-91202380D01*
X133333333Y-92202380D02*
X133333333Y-91202380D01*
X133904761Y-92202380D01*
X133904761Y-91202380D01*
X134380952Y-91821428D02*
X135142857Y-91821428D01*
X150723809Y-70073809D02*
X150838095Y-70111904D01*
X151028571Y-70111904D01*
X151104761Y-70073809D01*
X151142857Y-70035714D01*
X151180952Y-69959523D01*
X151180952Y-69883333D01*
X151142857Y-69807142D01*
X151104761Y-69769047D01*
X151028571Y-69730952D01*
X150876190Y-69692857D01*
X150800000Y-69654761D01*
X150761904Y-69616666D01*
X150723809Y-69540476D01*
X150723809Y-69464285D01*
X150761904Y-69388095D01*
X150800000Y-69350000D01*
X150876190Y-69311904D01*
X151066666Y-69311904D01*
X151180952Y-69350000D01*
X151409523Y-69311904D02*
X151866666Y-69311904D01*
X151638095Y-70111904D02*
X151638095Y-69311904D01*
X152400000Y-69692857D02*
X152514285Y-69730952D01*
X152552380Y-69769047D01*
X152590476Y-69845238D01*
X152590476Y-69959523D01*
X152552380Y-70035714D01*
X152514285Y-70073809D01*
X152438095Y-70111904D01*
X152133333Y-70111904D01*
X152133333Y-69311904D01*
X152400000Y-69311904D01*
X152476190Y-69350000D01*
X152514285Y-69388095D01*
X152552380Y-69464285D01*
X152552380Y-69540476D01*
X152514285Y-69616666D01*
X152476190Y-69654761D01*
X152400000Y-69692857D01*
X152133333Y-69692857D01*
X153085714Y-69730952D02*
X153085714Y-70111904D01*
X152819047Y-69311904D02*
X153085714Y-69730952D01*
X153352380Y-69311904D01*
D11*
%TO.C,Q1*%
X150510000Y-69330000D02*
X150510000Y-68400000D01*
X150510000Y-66170000D02*
X150510000Y-67100000D01*
X150510000Y-66170000D02*
X148350000Y-66170000D01*
X150510000Y-69330000D02*
X149050000Y-69330000D01*
%TO.C,D2*%
X143000000Y-64000000D02*
X143000000Y-66000000D01*
X143000000Y-66000000D02*
X146900000Y-66000000D01*
X143000000Y-64000000D02*
X146900000Y-64000000D01*
%TO.C,R15*%
X145852064Y-68660000D02*
X144647936Y-68660000D01*
X145852064Y-66840000D02*
X144647936Y-66840000D01*
%TO.C,R14*%
X144647936Y-55840000D02*
X145852064Y-55840000D01*
X144647936Y-57660000D02*
X145852064Y-57660000D01*
%TO.C,R13*%
X145852064Y-63160000D02*
X144647936Y-63160000D01*
X145852064Y-61340000D02*
X144647936Y-61340000D01*
%TO.C,J9*%
X150880000Y-70420000D02*
X150880000Y-73080000D01*
X153480000Y-70420000D02*
X150880000Y-70420000D01*
X153480000Y-73080000D02*
X150880000Y-73080000D01*
X153480000Y-70420000D02*
X153480000Y-73080000D01*
X154750000Y-70420000D02*
X156080000Y-70420000D01*
X156080000Y-70420000D02*
X156080000Y-71750000D01*
%TO.C,D1*%
X147500000Y-60500000D02*
X147500000Y-58500000D01*
X147500000Y-58500000D02*
X143600000Y-58500000D01*
X147500000Y-60500000D02*
X143600000Y-60500000D01*
%TO.C,C10*%
X156770000Y-77250000D02*
G75*
G03*
X156770000Y-77250000I-3270000J0D01*
G01*
X153500000Y-74020000D02*
X153500000Y-80480000D01*
X153540000Y-74020000D02*
X153540000Y-80480000D01*
X153580000Y-74020000D02*
X153580000Y-80480000D01*
X153620000Y-74022000D02*
X153620000Y-80478000D01*
X153660000Y-74023000D02*
X153660000Y-80477000D01*
X153700000Y-74026000D02*
X153700000Y-80474000D01*
X153740000Y-74028000D02*
X153740000Y-76210000D01*
X153740000Y-78290000D02*
X153740000Y-80472000D01*
X153780000Y-74032000D02*
X153780000Y-76210000D01*
X153780000Y-78290000D02*
X153780000Y-80468000D01*
X153820000Y-74035000D02*
X153820000Y-76210000D01*
X153820000Y-78290000D02*
X153820000Y-80465000D01*
X153860000Y-74039000D02*
X153860000Y-76210000D01*
X153860000Y-78290000D02*
X153860000Y-80461000D01*
X153900000Y-74044000D02*
X153900000Y-76210000D01*
X153900000Y-78290000D02*
X153900000Y-80456000D01*
X153940000Y-74049000D02*
X153940000Y-76210000D01*
X153940000Y-78290000D02*
X153940000Y-80451000D01*
X153980000Y-74055000D02*
X153980000Y-76210000D01*
X153980000Y-78290000D02*
X153980000Y-80445000D01*
X154020000Y-74061000D02*
X154020000Y-76210000D01*
X154020000Y-78290000D02*
X154020000Y-80439000D01*
X154060000Y-74068000D02*
X154060000Y-76210000D01*
X154060000Y-78290000D02*
X154060000Y-80432000D01*
X154100000Y-74075000D02*
X154100000Y-76210000D01*
X154100000Y-78290000D02*
X154100000Y-80425000D01*
X154140000Y-74083000D02*
X154140000Y-76210000D01*
X154140000Y-78290000D02*
X154140000Y-80417000D01*
X154180000Y-74091000D02*
X154180000Y-76210000D01*
X154180000Y-78290000D02*
X154180000Y-80409000D01*
X154221000Y-74100000D02*
X154221000Y-76210000D01*
X154221000Y-78290000D02*
X154221000Y-80400000D01*
X154261000Y-74109000D02*
X154261000Y-76210000D01*
X154261000Y-78290000D02*
X154261000Y-80391000D01*
X154301000Y-74119000D02*
X154301000Y-76210000D01*
X154301000Y-78290000D02*
X154301000Y-80381000D01*
X154341000Y-74129000D02*
X154341000Y-76210000D01*
X154341000Y-78290000D02*
X154341000Y-80371000D01*
X154381000Y-74140000D02*
X154381000Y-76210000D01*
X154381000Y-78290000D02*
X154381000Y-80360000D01*
X154421000Y-74152000D02*
X154421000Y-76210000D01*
X154421000Y-78290000D02*
X154421000Y-80348000D01*
X154461000Y-74164000D02*
X154461000Y-76210000D01*
X154461000Y-78290000D02*
X154461000Y-80336000D01*
X154501000Y-74176000D02*
X154501000Y-76210000D01*
X154501000Y-78290000D02*
X154501000Y-80324000D01*
X154541000Y-74189000D02*
X154541000Y-76210000D01*
X154541000Y-78290000D02*
X154541000Y-80311000D01*
X154581000Y-74203000D02*
X154581000Y-76210000D01*
X154581000Y-78290000D02*
X154581000Y-80297000D01*
X154621000Y-74217000D02*
X154621000Y-76210000D01*
X154621000Y-78290000D02*
X154621000Y-80283000D01*
X154661000Y-74232000D02*
X154661000Y-76210000D01*
X154661000Y-78290000D02*
X154661000Y-80268000D01*
X154701000Y-74248000D02*
X154701000Y-76210000D01*
X154701000Y-78290000D02*
X154701000Y-80252000D01*
X154741000Y-74264000D02*
X154741000Y-76210000D01*
X154741000Y-78290000D02*
X154741000Y-80236000D01*
X154781000Y-74280000D02*
X154781000Y-76210000D01*
X154781000Y-78290000D02*
X154781000Y-80220000D01*
X154821000Y-74298000D02*
X154821000Y-76210000D01*
X154821000Y-78290000D02*
X154821000Y-80202000D01*
X154861000Y-74316000D02*
X154861000Y-76210000D01*
X154861000Y-78290000D02*
X154861000Y-80184000D01*
X154901000Y-74334000D02*
X154901000Y-76210000D01*
X154901000Y-78290000D02*
X154901000Y-80166000D01*
X154941000Y-74354000D02*
X154941000Y-76210000D01*
X154941000Y-78290000D02*
X154941000Y-80146000D01*
X154981000Y-74374000D02*
X154981000Y-76210000D01*
X154981000Y-78290000D02*
X154981000Y-80126000D01*
X155021000Y-74394000D02*
X155021000Y-76210000D01*
X155021000Y-78290000D02*
X155021000Y-80106000D01*
X155061000Y-74416000D02*
X155061000Y-76210000D01*
X155061000Y-78290000D02*
X155061000Y-80084000D01*
X155101000Y-74438000D02*
X155101000Y-76210000D01*
X155101000Y-78290000D02*
X155101000Y-80062000D01*
X155141000Y-74460000D02*
X155141000Y-76210000D01*
X155141000Y-78290000D02*
X155141000Y-80040000D01*
X155181000Y-74484000D02*
X155181000Y-76210000D01*
X155181000Y-78290000D02*
X155181000Y-80016000D01*
X155221000Y-74508000D02*
X155221000Y-76210000D01*
X155221000Y-78290000D02*
X155221000Y-79992000D01*
X155261000Y-74534000D02*
X155261000Y-76210000D01*
X155261000Y-78290000D02*
X155261000Y-79966000D01*
X155301000Y-74560000D02*
X155301000Y-76210000D01*
X155301000Y-78290000D02*
X155301000Y-79940000D01*
X155341000Y-74586000D02*
X155341000Y-76210000D01*
X155341000Y-78290000D02*
X155341000Y-79914000D01*
X155381000Y-74614000D02*
X155381000Y-76210000D01*
X155381000Y-78290000D02*
X155381000Y-79886000D01*
X155421000Y-74643000D02*
X155421000Y-76210000D01*
X155421000Y-78290000D02*
X155421000Y-79857000D01*
X155461000Y-74672000D02*
X155461000Y-76210000D01*
X155461000Y-78290000D02*
X155461000Y-79828000D01*
X155501000Y-74702000D02*
X155501000Y-76210000D01*
X155501000Y-78290000D02*
X155501000Y-79798000D01*
X155541000Y-74734000D02*
X155541000Y-76210000D01*
X155541000Y-78290000D02*
X155541000Y-79766000D01*
X155581000Y-74766000D02*
X155581000Y-76210000D01*
X155581000Y-78290000D02*
X155581000Y-79734000D01*
X155621000Y-74800000D02*
X155621000Y-76210000D01*
X155621000Y-78290000D02*
X155621000Y-79700000D01*
X155661000Y-74834000D02*
X155661000Y-76210000D01*
X155661000Y-78290000D02*
X155661000Y-79666000D01*
X155701000Y-74870000D02*
X155701000Y-76210000D01*
X155701000Y-78290000D02*
X155701000Y-79630000D01*
X155741000Y-74907000D02*
X155741000Y-76210000D01*
X155741000Y-78290000D02*
X155741000Y-79593000D01*
X155781000Y-74945000D02*
X155781000Y-76210000D01*
X155781000Y-78290000D02*
X155781000Y-79555000D01*
X155821000Y-74985000D02*
X155821000Y-79515000D01*
X155861000Y-75026000D02*
X155861000Y-79474000D01*
X155901000Y-75068000D02*
X155901000Y-79432000D01*
X155941000Y-75113000D02*
X155941000Y-79387000D01*
X155981000Y-75158000D02*
X155981000Y-79342000D01*
X156021000Y-75206000D02*
X156021000Y-79294000D01*
X156061000Y-75255000D02*
X156061000Y-79245000D01*
X156101000Y-75306000D02*
X156101000Y-79194000D01*
X156141000Y-75360000D02*
X156141000Y-79140000D01*
X156181000Y-75416000D02*
X156181000Y-79084000D01*
X156221000Y-75474000D02*
X156221000Y-79026000D01*
X156261000Y-75536000D02*
X156261000Y-78964000D01*
X156301000Y-75600000D02*
X156301000Y-78900000D01*
X156341000Y-75669000D02*
X156341000Y-78831000D01*
X156381000Y-75741000D02*
X156381000Y-78759000D01*
X156421000Y-75818000D02*
X156421000Y-78682000D01*
X156461000Y-75900000D02*
X156461000Y-78600000D01*
X156501000Y-75988000D02*
X156501000Y-78512000D01*
X156541000Y-76085000D02*
X156541000Y-78415000D01*
X156581000Y-76191000D02*
X156581000Y-78309000D01*
X156621000Y-76310000D02*
X156621000Y-78190000D01*
X156661000Y-76448000D02*
X156661000Y-78052000D01*
X156701000Y-76617000D02*
X156701000Y-77883000D01*
X156741000Y-76848000D02*
X156741000Y-77652000D01*
X149999759Y-75411000D02*
X150629759Y-75411000D01*
X150314759Y-75096000D02*
X150314759Y-75726000D01*
%TO.C,R4*%
X144160000Y-73147936D02*
X144160000Y-74352064D01*
X142340000Y-73147936D02*
X142340000Y-74352064D01*
%TO.C,J2*%
X96750000Y-90000000D02*
X106750000Y-90000000D01*
X106750000Y-90000000D02*
X106750000Y-99000000D01*
X106750000Y-99000000D02*
X96750000Y-99000000D01*
X96750000Y-99000000D02*
X96750000Y-90000000D01*
X105850781Y-95000000D02*
G75*
G03*
X105850781Y-95000000I-1600781J0D01*
G01*
X100850781Y-95000000D02*
G75*
G03*
X100850781Y-95000000I-1600781J0D01*
G01*
X99809017Y-91250000D02*
G75*
G03*
X99809017Y-91250000I-559017J0D01*
G01*
X104809017Y-91250000D02*
G75*
G03*
X104809017Y-91250000I-559017J0D01*
G01*
X98250000Y-99000000D02*
X98250000Y-97000000D01*
X98250000Y-97000000D02*
X100250000Y-97000000D01*
X100250000Y-97000000D02*
X100250000Y-99000000D01*
X103250000Y-97000000D02*
X103250000Y-99000000D01*
X103250000Y-97000000D02*
X105250000Y-97000000D01*
X105250000Y-97000000D02*
X105250000Y-99000000D01*
%TO.C,R9*%
X122630000Y-82200000D02*
X127370000Y-82200000D01*
X127370000Y-82200000D02*
X127370000Y-70060000D01*
X127370000Y-70060000D02*
X122630000Y-70060000D01*
X122630000Y-70060000D02*
X122630000Y-82200000D01*
X125000000Y-82310000D02*
X125000000Y-82200000D01*
X125000000Y-69950000D02*
X125000000Y-70060000D01*
%TO.C,U1*%
X118670000Y-54300000D02*
X139110000Y-54300000D01*
X118670000Y-59541000D02*
X120346000Y-59541000D01*
X122195000Y-59541000D02*
X122886000Y-59541000D01*
X124735000Y-59541000D02*
X125426000Y-59541000D01*
X127275000Y-59541000D02*
X127966000Y-59541000D01*
X129815000Y-59541000D02*
X130506000Y-59541000D01*
X132355000Y-59541000D02*
X133046000Y-59541000D01*
X134895000Y-59541000D02*
X135586000Y-59541000D01*
X137435000Y-59541000D02*
X139110000Y-59541000D01*
X118670000Y-54300000D02*
X118670000Y-59541000D01*
X139110000Y-54300000D02*
X139110000Y-59541000D01*
X118670000Y-56140000D02*
X139110000Y-56140000D01*
X127041000Y-54300000D02*
X127041000Y-56140000D01*
X130740000Y-54300000D02*
X130740000Y-56140000D01*
X120000000Y-59541000D02*
X120000000Y-62950000D01*
X122540000Y-59541000D02*
X122540000Y-62935000D01*
X125080000Y-59541000D02*
X125080000Y-62935000D01*
X127620000Y-59541000D02*
X127620000Y-62935000D01*
X130160000Y-59541000D02*
X130160000Y-62935000D01*
X132700000Y-59541000D02*
X132700000Y-62935000D01*
X135240000Y-59541000D02*
X135240000Y-62935000D01*
X137780000Y-59541000D02*
X137780000Y-62935000D01*
%TO.C,R12*%
X110870000Y-70050000D02*
X106130000Y-70050000D01*
X106130000Y-70050000D02*
X106130000Y-82190000D01*
X106130000Y-82190000D02*
X110870000Y-82190000D01*
X110870000Y-82190000D02*
X110870000Y-70050000D01*
X108500000Y-69940000D02*
X108500000Y-70050000D01*
X108500000Y-82300000D02*
X108500000Y-82190000D01*
%TO.C,R11*%
X116370000Y-70050000D02*
X111630000Y-70050000D01*
X111630000Y-70050000D02*
X111630000Y-82190000D01*
X111630000Y-82190000D02*
X116370000Y-82190000D01*
X116370000Y-82190000D02*
X116370000Y-70050000D01*
X114000000Y-69940000D02*
X114000000Y-70050000D01*
X114000000Y-82300000D02*
X114000000Y-82190000D01*
%TO.C,R10*%
X117130000Y-82200000D02*
X121870000Y-82200000D01*
X121870000Y-82200000D02*
X121870000Y-70060000D01*
X121870000Y-70060000D02*
X117130000Y-70060000D01*
X117130000Y-70060000D02*
X117130000Y-82200000D01*
X119500000Y-82310000D02*
X119500000Y-82200000D01*
X119500000Y-69950000D02*
X119500000Y-70060000D01*
%TO.C,R8*%
X139590000Y-74352064D02*
X139590000Y-73147936D01*
X141410000Y-74352064D02*
X141410000Y-73147936D01*
%TO.C,R7*%
X147840000Y-74352064D02*
X147840000Y-73147936D01*
X149660000Y-74352064D02*
X149660000Y-73147936D01*
%TO.C,R6*%
X128590000Y-74352064D02*
X128590000Y-73147936D01*
X130410000Y-74352064D02*
X130410000Y-73147936D01*
%TO.C,R5*%
X136840000Y-74352064D02*
X136840000Y-73147936D01*
X138660000Y-74352064D02*
X138660000Y-73147936D01*
%TO.C,R3*%
X146910000Y-73147936D02*
X146910000Y-74352064D01*
X145090000Y-73147936D02*
X145090000Y-74352064D01*
%TO.C,R2*%
X133160000Y-73147936D02*
X133160000Y-74352064D01*
X131340000Y-73147936D02*
X131340000Y-74352064D01*
%TO.C,R1*%
X135910000Y-73147936D02*
X135910000Y-74352064D01*
X134090000Y-73147936D02*
X134090000Y-74352064D01*
D12*
%TO.C,L1*%
X114940000Y-95810000D02*
X113750000Y-89250000D01*
X123700000Y-95000000D02*
X122560000Y-88190000D01*
X116210000Y-95810000D02*
X114940000Y-88190000D01*
X117480000Y-95810000D02*
X116210000Y-88190000D01*
X118750000Y-95810000D02*
X117480000Y-88190000D01*
X120020000Y-95810000D02*
X118750000Y-88190000D01*
X121290000Y-95810000D02*
X120020000Y-88190000D01*
X122560000Y-95810000D02*
X121290000Y-88190000D01*
D11*
X112400000Y-97080000D02*
X125100000Y-97080000D01*
X112400000Y-89460000D02*
X112400000Y-97080000D01*
X125100000Y-86920000D02*
X112400000Y-86920000D01*
X125100000Y-94540000D02*
X125100000Y-86920000D01*
%TO.C,J8*%
X86640000Y-81750000D02*
G75*
G03*
X86640000Y-81750000I-1600000J0D01*
G01*
X81560000Y-81750000D02*
G75*
G03*
X81560000Y-81750000I-1600000J0D01*
G01*
%TO.C,J7*%
X86640000Y-75000000D02*
G75*
G03*
X86640000Y-75000000I-1600000J0D01*
G01*
X81560000Y-75000000D02*
G75*
G03*
X81560000Y-75000000I-1600000J0D01*
G01*
%TO.C,J6*%
X86640000Y-68250000D02*
G75*
G03*
X86640000Y-68250000I-1600000J0D01*
G01*
X81560000Y-68250000D02*
G75*
G03*
X81560000Y-68250000I-1600000J0D01*
G01*
%TO.C,J5*%
X99100000Y-92460000D02*
G75*
G03*
X99100000Y-92460000I-1600000J0D01*
G01*
X99100000Y-97540000D02*
G75*
G03*
X99100000Y-97540000I-1600000J0D01*
G01*
%TO.C,J4*%
X107600000Y-92460000D02*
G75*
G03*
X107600000Y-92460000I-1600000J0D01*
G01*
X107600000Y-97540000D02*
G75*
G03*
X107600000Y-97540000I-1600000J0D01*
G01*
%TO.C,J3*%
X85000000Y-67250000D02*
X85000000Y-67500000D01*
X87000000Y-67250000D02*
X85000000Y-67250000D01*
X87000000Y-67500000D02*
X87000000Y-67250000D01*
X80500000Y-69000000D02*
X78500000Y-69000000D01*
X80500000Y-71000000D02*
X78500000Y-71000000D01*
X80500000Y-76000000D02*
X78500000Y-76000000D01*
X80500000Y-74000000D02*
X78500000Y-74000000D01*
X80500000Y-69000000D02*
X80500000Y-71000000D01*
X80500000Y-74000000D02*
X80500000Y-76000000D01*
X80500000Y-79000000D02*
X78500000Y-79000000D01*
X80500000Y-81000000D02*
X78500000Y-81000000D01*
X80500000Y-79000000D02*
X80500000Y-81000000D01*
X86809017Y-80000000D02*
G75*
G03*
X86809017Y-80000000I-559017J0D01*
G01*
X86809017Y-75000000D02*
G75*
G03*
X86809017Y-75000000I-559017J0D01*
G01*
X86809017Y-70000000D02*
G75*
G03*
X86809017Y-70000000I-559017J0D01*
G01*
X84177051Y-70000000D02*
G75*
G03*
X84177051Y-70000000I-1677051J0D01*
G01*
X84100781Y-75000000D02*
G75*
G03*
X84100781Y-75000000I-1600781J0D01*
G01*
X84177051Y-80000000D02*
G75*
G03*
X84177051Y-80000000I-1677051J0D01*
G01*
X78500000Y-67500000D02*
X78500000Y-82500000D01*
X87500000Y-67500000D02*
X78500000Y-67500000D01*
X87500000Y-82500000D02*
X78500000Y-82500000D01*
X87500000Y-67500000D02*
X87500000Y-82500000D01*
%TO.C,J1*%
X142000000Y-97750000D02*
X142000000Y-99500000D01*
X141000000Y-97750000D02*
X142000000Y-97750000D01*
X141000000Y-99500000D02*
X141000000Y-97750000D01*
X138500000Y-97750000D02*
X138500000Y-99500000D01*
X137500000Y-97750000D02*
X138500000Y-97750000D01*
X137500000Y-99500000D02*
X137500000Y-97750000D01*
X134000000Y-97750000D02*
X134000000Y-99500000D01*
X135000000Y-97750000D02*
X135000000Y-99500000D01*
X134000000Y-97750000D02*
X135000000Y-97750000D01*
X135750000Y-96000000D02*
G75*
G03*
X135750000Y-96000000I-1250000J0D01*
G01*
X139250000Y-96000000D02*
G75*
G03*
X139250000Y-96000000I-1250000J0D01*
G01*
X142750000Y-96000000D02*
G75*
G03*
X142750000Y-96000000I-1250000J0D01*
G01*
X144000000Y-92500000D02*
X132000000Y-92500000D01*
X144000000Y-99500000D02*
X132000000Y-99500000D01*
X132000000Y-92500000D02*
X132000000Y-99500000D01*
X144000000Y-92500000D02*
X144000000Y-99500000D01*
%TO.C,C9*%
X117470000Y-66870000D02*
X110030000Y-66870000D01*
X117470000Y-64130000D02*
X110030000Y-64130000D01*
X117470000Y-66870000D02*
X117470000Y-64130000D01*
X110030000Y-66870000D02*
X110030000Y-64130000D01*
%TO.C,C8*%
X141660000Y-57647936D02*
X141660000Y-58852064D01*
X139840000Y-57647936D02*
X139840000Y-58852064D01*
%TO.C,C7*%
X141660000Y-63147936D02*
X141660000Y-64352064D01*
X139840000Y-63147936D02*
X139840000Y-64352064D01*
%TO.C,C5*%
X118160000Y-60147936D02*
X118160000Y-61352064D01*
X116340000Y-60147936D02*
X116340000Y-61352064D01*
%TO.C,C4*%
X105620000Y-63500000D02*
G75*
G03*
X105620000Y-63500000I-8120000J0D01*
G01*
X89419000Y-63500000D02*
X105581000Y-63500000D01*
X89420000Y-63460000D02*
X105580000Y-63460000D01*
X89420000Y-63420000D02*
X105580000Y-63420000D01*
X89420000Y-63380000D02*
X105580000Y-63380000D01*
X89421000Y-63340000D02*
X105579000Y-63340000D01*
X89422000Y-63300000D02*
X105578000Y-63300000D01*
X89423000Y-63260000D02*
X105577000Y-63260000D01*
X89424000Y-63220000D02*
X105576000Y-63220000D01*
X89426000Y-63180000D02*
X105574000Y-63180000D01*
X89427000Y-63140000D02*
X105573000Y-63140000D01*
X89429000Y-63100000D02*
X105571000Y-63100000D01*
X89431000Y-63060000D02*
X105569000Y-63060000D01*
X89434000Y-63020000D02*
X105566000Y-63020000D01*
X89436000Y-62980000D02*
X105564000Y-62980000D01*
X89439000Y-62940000D02*
X105561000Y-62940000D01*
X89442000Y-62900000D02*
X105558000Y-62900000D01*
X89445000Y-62860000D02*
X105555000Y-62860000D01*
X89448000Y-62820000D02*
X105552000Y-62820000D01*
X89451000Y-62779000D02*
X105549000Y-62779000D01*
X89455000Y-62739000D02*
X105545000Y-62739000D01*
X89459000Y-62699000D02*
X105541000Y-62699000D01*
X89463000Y-62659000D02*
X105537000Y-62659000D01*
X89467000Y-62619000D02*
X105533000Y-62619000D01*
X89472000Y-62579000D02*
X105528000Y-62579000D01*
X89476000Y-62539000D02*
X105524000Y-62539000D01*
X89481000Y-62499000D02*
X105519000Y-62499000D01*
X89486000Y-62459000D02*
X105514000Y-62459000D01*
X89492000Y-62419000D02*
X105508000Y-62419000D01*
X89497000Y-62379000D02*
X105503000Y-62379000D01*
X89503000Y-62339000D02*
X105497000Y-62339000D01*
X89509000Y-62299000D02*
X105491000Y-62299000D01*
X89515000Y-62259000D02*
X105485000Y-62259000D01*
X89521000Y-62219000D02*
X105479000Y-62219000D01*
X89528000Y-62179000D02*
X105472000Y-62179000D01*
X89534000Y-62139000D02*
X105466000Y-62139000D01*
X89541000Y-62099000D02*
X105459000Y-62099000D01*
X89548000Y-62059000D02*
X105452000Y-62059000D01*
X89556000Y-62019000D02*
X105444000Y-62019000D01*
X89563000Y-61979000D02*
X105437000Y-61979000D01*
X89571000Y-61939000D02*
X105429000Y-61939000D01*
X89579000Y-61899000D02*
X105421000Y-61899000D01*
X89587000Y-61859000D02*
X105413000Y-61859000D01*
X89595000Y-61819000D02*
X105405000Y-61819000D01*
X89604000Y-61779000D02*
X105396000Y-61779000D01*
X89613000Y-61739000D02*
X105387000Y-61739000D01*
X89622000Y-61699000D02*
X105378000Y-61699000D01*
X89631000Y-61659000D02*
X105369000Y-61659000D01*
X89640000Y-61619000D02*
X105360000Y-61619000D01*
X89650000Y-61579000D02*
X105350000Y-61579000D01*
X89660000Y-61539000D02*
X105340000Y-61539000D01*
X89670000Y-61499000D02*
X105330000Y-61499000D01*
X89680000Y-61459000D02*
X105320000Y-61459000D01*
X89690000Y-61419000D02*
X105310000Y-61419000D01*
X89701000Y-61379000D02*
X105299000Y-61379000D01*
X89712000Y-61339000D02*
X105288000Y-61339000D01*
X89723000Y-61299000D02*
X105277000Y-61299000D01*
X89735000Y-61259000D02*
X105265000Y-61259000D01*
X89746000Y-61219000D02*
X105254000Y-61219000D01*
X89758000Y-61179000D02*
X96060000Y-61179000D01*
X98940000Y-61179000D02*
X105242000Y-61179000D01*
X89770000Y-61139000D02*
X96060000Y-61139000D01*
X98940000Y-61139000D02*
X105230000Y-61139000D01*
X89782000Y-61099000D02*
X96060000Y-61099000D01*
X98940000Y-61099000D02*
X105218000Y-61099000D01*
X89795000Y-61059000D02*
X96060000Y-61059000D01*
X98940000Y-61059000D02*
X105205000Y-61059000D01*
X89807000Y-61019000D02*
X96060000Y-61019000D01*
X98940000Y-61019000D02*
X105193000Y-61019000D01*
X89820000Y-60979000D02*
X96060000Y-60979000D01*
X98940000Y-60979000D02*
X105180000Y-60979000D01*
X89834000Y-60939000D02*
X96060000Y-60939000D01*
X98940000Y-60939000D02*
X105166000Y-60939000D01*
X89847000Y-60899000D02*
X96060000Y-60899000D01*
X98940000Y-60899000D02*
X105153000Y-60899000D01*
X89861000Y-60859000D02*
X96060000Y-60859000D01*
X98940000Y-60859000D02*
X105139000Y-60859000D01*
X89875000Y-60819000D02*
X96060000Y-60819000D01*
X98940000Y-60819000D02*
X105125000Y-60819000D01*
X89889000Y-60779000D02*
X96060000Y-60779000D01*
X98940000Y-60779000D02*
X105111000Y-60779000D01*
X89903000Y-60739000D02*
X96060000Y-60739000D01*
X98940000Y-60739000D02*
X105097000Y-60739000D01*
X89918000Y-60699000D02*
X96060000Y-60699000D01*
X98940000Y-60699000D02*
X105082000Y-60699000D01*
X89932000Y-60659000D02*
X96060000Y-60659000D01*
X98940000Y-60659000D02*
X105068000Y-60659000D01*
X89947000Y-60619000D02*
X96060000Y-60619000D01*
X98940000Y-60619000D02*
X105053000Y-60619000D01*
X89963000Y-60579000D02*
X96060000Y-60579000D01*
X98940000Y-60579000D02*
X105037000Y-60579000D01*
X89978000Y-60539000D02*
X96060000Y-60539000D01*
X98940000Y-60539000D02*
X105022000Y-60539000D01*
X89994000Y-60499000D02*
X96060000Y-60499000D01*
X98940000Y-60499000D02*
X105006000Y-60499000D01*
X90010000Y-60459000D02*
X96060000Y-60459000D01*
X98940000Y-60459000D02*
X104990000Y-60459000D01*
X90026000Y-60419000D02*
X96060000Y-60419000D01*
X98940000Y-60419000D02*
X104974000Y-60419000D01*
X90043000Y-60379000D02*
X96060000Y-60379000D01*
X98940000Y-60379000D02*
X104957000Y-60379000D01*
X90060000Y-60339000D02*
X96060000Y-60339000D01*
X98940000Y-60339000D02*
X104940000Y-60339000D01*
X90077000Y-60299000D02*
X96060000Y-60299000D01*
X98940000Y-60299000D02*
X104923000Y-60299000D01*
X90094000Y-60259000D02*
X96060000Y-60259000D01*
X98940000Y-60259000D02*
X104906000Y-60259000D01*
X90111000Y-60219000D02*
X96060000Y-60219000D01*
X98940000Y-60219000D02*
X104889000Y-60219000D01*
X90129000Y-60179000D02*
X96060000Y-60179000D01*
X98940000Y-60179000D02*
X104871000Y-60179000D01*
X90147000Y-60139000D02*
X96060000Y-60139000D01*
X98940000Y-60139000D02*
X104853000Y-60139000D01*
X90166000Y-60099000D02*
X96060000Y-60099000D01*
X98940000Y-60099000D02*
X104834000Y-60099000D01*
X90184000Y-60059000D02*
X96060000Y-60059000D01*
X98940000Y-60059000D02*
X104816000Y-60059000D01*
X90203000Y-60019000D02*
X96060000Y-60019000D01*
X98940000Y-60019000D02*
X104797000Y-60019000D01*
X90222000Y-59979000D02*
X96060000Y-59979000D01*
X98940000Y-59979000D02*
X104778000Y-59979000D01*
X90242000Y-59939000D02*
X96060000Y-59939000D01*
X98940000Y-59939000D02*
X104758000Y-59939000D01*
X90261000Y-59899000D02*
X96060000Y-59899000D01*
X98940000Y-59899000D02*
X104739000Y-59899000D01*
X90281000Y-59859000D02*
X96060000Y-59859000D01*
X98940000Y-59859000D02*
X104719000Y-59859000D01*
X90301000Y-59819000D02*
X96060000Y-59819000D01*
X98940000Y-59819000D02*
X104699000Y-59819000D01*
X90322000Y-59779000D02*
X96060000Y-59779000D01*
X98940000Y-59779000D02*
X104678000Y-59779000D01*
X90343000Y-59739000D02*
X96060000Y-59739000D01*
X98940000Y-59739000D02*
X104657000Y-59739000D01*
X90364000Y-59699000D02*
X96060000Y-59699000D01*
X98940000Y-59699000D02*
X104636000Y-59699000D01*
X90385000Y-59659000D02*
X96060000Y-59659000D01*
X98940000Y-59659000D02*
X104615000Y-59659000D01*
X90406000Y-59619000D02*
X96060000Y-59619000D01*
X98940000Y-59619000D02*
X104594000Y-59619000D01*
X90428000Y-59579000D02*
X96060000Y-59579000D01*
X98940000Y-59579000D02*
X104572000Y-59579000D01*
X90451000Y-59539000D02*
X96060000Y-59539000D01*
X98940000Y-59539000D02*
X104549000Y-59539000D01*
X90473000Y-59499000D02*
X96060000Y-59499000D01*
X98940000Y-59499000D02*
X104527000Y-59499000D01*
X90496000Y-59459000D02*
X96060000Y-59459000D01*
X98940000Y-59459000D02*
X104504000Y-59459000D01*
X90519000Y-59419000D02*
X96060000Y-59419000D01*
X98940000Y-59419000D02*
X104481000Y-59419000D01*
X90542000Y-59379000D02*
X96060000Y-59379000D01*
X98940000Y-59379000D02*
X104458000Y-59379000D01*
X90566000Y-59339000D02*
X96060000Y-59339000D01*
X98940000Y-59339000D02*
X104434000Y-59339000D01*
X90590000Y-59299000D02*
X96060000Y-59299000D01*
X98940000Y-59299000D02*
X104410000Y-59299000D01*
X90614000Y-59259000D02*
X96060000Y-59259000D01*
X98940000Y-59259000D02*
X104386000Y-59259000D01*
X90639000Y-59219000D02*
X96060000Y-59219000D01*
X98940000Y-59219000D02*
X104361000Y-59219000D01*
X90664000Y-59179000D02*
X96060000Y-59179000D01*
X98940000Y-59179000D02*
X104336000Y-59179000D01*
X90689000Y-59139000D02*
X96060000Y-59139000D01*
X98940000Y-59139000D02*
X104311000Y-59139000D01*
X90715000Y-59099000D02*
X96060000Y-59099000D01*
X98940000Y-59099000D02*
X104285000Y-59099000D01*
X90741000Y-59059000D02*
X96060000Y-59059000D01*
X98940000Y-59059000D02*
X104259000Y-59059000D01*
X90767000Y-59019000D02*
X96060000Y-59019000D01*
X98940000Y-59019000D02*
X104233000Y-59019000D01*
X90794000Y-58979000D02*
X96060000Y-58979000D01*
X98940000Y-58979000D02*
X104206000Y-58979000D01*
X90821000Y-58939000D02*
X96060000Y-58939000D01*
X98940000Y-58939000D02*
X104179000Y-58939000D01*
X90848000Y-58899000D02*
X96060000Y-58899000D01*
X98940000Y-58899000D02*
X104152000Y-58899000D01*
X90876000Y-58859000D02*
X96060000Y-58859000D01*
X98940000Y-58859000D02*
X104124000Y-58859000D01*
X90904000Y-58819000D02*
X96060000Y-58819000D01*
X98940000Y-58819000D02*
X104096000Y-58819000D01*
X90932000Y-58779000D02*
X96060000Y-58779000D01*
X98940000Y-58779000D02*
X104068000Y-58779000D01*
X90961000Y-58739000D02*
X96060000Y-58739000D01*
X98940000Y-58739000D02*
X104039000Y-58739000D01*
X90990000Y-58699000D02*
X96060000Y-58699000D01*
X98940000Y-58699000D02*
X104010000Y-58699000D01*
X91020000Y-58659000D02*
X96060000Y-58659000D01*
X98940000Y-58659000D02*
X103980000Y-58659000D01*
X91050000Y-58619000D02*
X96060000Y-58619000D01*
X98940000Y-58619000D02*
X103950000Y-58619000D01*
X91080000Y-58579000D02*
X96060000Y-58579000D01*
X98940000Y-58579000D02*
X103920000Y-58579000D01*
X91110000Y-58539000D02*
X96060000Y-58539000D01*
X98940000Y-58539000D02*
X103890000Y-58539000D01*
X91142000Y-58499000D02*
X96060000Y-58499000D01*
X98940000Y-58499000D02*
X103858000Y-58499000D01*
X91173000Y-58459000D02*
X96060000Y-58459000D01*
X98940000Y-58459000D02*
X103827000Y-58459000D01*
X91205000Y-58419000D02*
X96060000Y-58419000D01*
X98940000Y-58419000D02*
X103795000Y-58419000D01*
X91237000Y-58379000D02*
X96060000Y-58379000D01*
X98940000Y-58379000D02*
X103763000Y-58379000D01*
X91270000Y-58339000D02*
X96060000Y-58339000D01*
X98940000Y-58339000D02*
X103730000Y-58339000D01*
X91303000Y-58299000D02*
X103697000Y-58299000D01*
X91337000Y-58259000D02*
X103663000Y-58259000D01*
X91371000Y-58219000D02*
X103629000Y-58219000D01*
X91405000Y-58179000D02*
X103595000Y-58179000D01*
X91440000Y-58139000D02*
X103560000Y-58139000D01*
X91475000Y-58099000D02*
X103525000Y-58099000D01*
X91511000Y-58059000D02*
X103489000Y-58059000D01*
X91548000Y-58019000D02*
X103452000Y-58019000D01*
X91584000Y-57979000D02*
X103416000Y-57979000D01*
X91622000Y-57939000D02*
X103378000Y-57939000D01*
X91660000Y-57899000D02*
X103340000Y-57899000D01*
X91698000Y-57859000D02*
X103302000Y-57859000D01*
X91737000Y-57819000D02*
X103263000Y-57819000D01*
X91776000Y-57779000D02*
X103224000Y-57779000D01*
X91816000Y-57739000D02*
X103184000Y-57739000D01*
X91857000Y-57699000D02*
X103143000Y-57699000D01*
X91898000Y-57659000D02*
X103102000Y-57659000D01*
X91940000Y-57619000D02*
X103060000Y-57619000D01*
X91982000Y-57579000D02*
X103018000Y-57579000D01*
X92025000Y-57539000D02*
X102975000Y-57539000D01*
X92068000Y-57499000D02*
X102932000Y-57499000D01*
X92112000Y-57459000D02*
X102888000Y-57459000D01*
X92157000Y-57419000D02*
X102843000Y-57419000D01*
X92203000Y-57379000D02*
X102797000Y-57379000D01*
X92249000Y-57339000D02*
X102751000Y-57339000D01*
X92296000Y-57299000D02*
X102704000Y-57299000D01*
X92344000Y-57259000D02*
X102656000Y-57259000D01*
X92392000Y-57219000D02*
X102608000Y-57219000D01*
X92441000Y-57179000D02*
X102559000Y-57179000D01*
X92491000Y-57139000D02*
X102509000Y-57139000D01*
X92542000Y-57099000D02*
X102458000Y-57099000D01*
X92594000Y-57059000D02*
X102406000Y-57059000D01*
X92646000Y-57019000D02*
X102354000Y-57019000D01*
X92700000Y-56979000D02*
X102300000Y-56979000D01*
X92754000Y-56939000D02*
X102246000Y-56939000D01*
X92809000Y-56899000D02*
X102191000Y-56899000D01*
X92866000Y-56859000D02*
X102134000Y-56859000D01*
X92923000Y-56819000D02*
X102077000Y-56819000D01*
X92981000Y-56779000D02*
X102019000Y-56779000D01*
X93041000Y-56739000D02*
X101959000Y-56739000D01*
X93102000Y-56699000D02*
X101898000Y-56699000D01*
X93164000Y-56659000D02*
X101836000Y-56659000D01*
X93227000Y-56619000D02*
X101773000Y-56619000D01*
X93291000Y-56579000D02*
X101709000Y-56579000D01*
X93357000Y-56539000D02*
X101643000Y-56539000D01*
X93424000Y-56499000D02*
X101576000Y-56499000D01*
X93493000Y-56459000D02*
X101507000Y-56459000D01*
X93564000Y-56419000D02*
X101436000Y-56419000D01*
X93636000Y-56379000D02*
X101364000Y-56379000D01*
X93710000Y-56339000D02*
X101290000Y-56339000D01*
X93785000Y-56299000D02*
X101215000Y-56299000D01*
X93863000Y-56259000D02*
X101137000Y-56259000D01*
X93943000Y-56219000D02*
X101057000Y-56219000D01*
X94025000Y-56179000D02*
X100975000Y-56179000D01*
X94110000Y-56139000D02*
X100890000Y-56139000D01*
X94197000Y-56099000D02*
X100803000Y-56099000D01*
X94287000Y-56059000D02*
X100713000Y-56059000D01*
X94380000Y-56019000D02*
X100620000Y-56019000D01*
X94476000Y-55979000D02*
X100524000Y-55979000D01*
X94576000Y-55939000D02*
X100424000Y-55939000D01*
X94680000Y-55899000D02*
X100320000Y-55899000D01*
X94789000Y-55859000D02*
X100211000Y-55859000D01*
X94903000Y-55819000D02*
X100097000Y-55819000D01*
X95022000Y-55779000D02*
X99978000Y-55779000D01*
X95149000Y-55739000D02*
X99851000Y-55739000D01*
X95282000Y-55699000D02*
X99718000Y-55699000D01*
X95426000Y-55659000D02*
X99574000Y-55659000D01*
X95580000Y-55619000D02*
X99420000Y-55619000D01*
X95748000Y-55579000D02*
X99252000Y-55579000D01*
X95936000Y-55539000D02*
X99064000Y-55539000D01*
X96149000Y-55499000D02*
X98851000Y-55499000D01*
X96402000Y-55459000D02*
X98598000Y-55459000D01*
X96735000Y-55419000D02*
X98265000Y-55419000D01*
X92945000Y-72189491D02*
X92945000Y-70589491D01*
X92145000Y-71389491D02*
X93745000Y-71389491D01*
%TO.C,C3*%
X105620000Y-80250000D02*
G75*
G03*
X105620000Y-80250000I-8120000J0D01*
G01*
X89419000Y-80250000D02*
X105581000Y-80250000D01*
X89420000Y-80210000D02*
X105580000Y-80210000D01*
X89420000Y-80170000D02*
X105580000Y-80170000D01*
X89420000Y-80130000D02*
X105580000Y-80130000D01*
X89421000Y-80090000D02*
X105579000Y-80090000D01*
X89422000Y-80050000D02*
X105578000Y-80050000D01*
X89423000Y-80010000D02*
X105577000Y-80010000D01*
X89424000Y-79970000D02*
X105576000Y-79970000D01*
X89426000Y-79930000D02*
X105574000Y-79930000D01*
X89427000Y-79890000D02*
X105573000Y-79890000D01*
X89429000Y-79850000D02*
X105571000Y-79850000D01*
X89431000Y-79810000D02*
X105569000Y-79810000D01*
X89434000Y-79770000D02*
X105566000Y-79770000D01*
X89436000Y-79730000D02*
X105564000Y-79730000D01*
X89439000Y-79690000D02*
X105561000Y-79690000D01*
X89442000Y-79650000D02*
X105558000Y-79650000D01*
X89445000Y-79610000D02*
X105555000Y-79610000D01*
X89448000Y-79570000D02*
X105552000Y-79570000D01*
X89451000Y-79529000D02*
X105549000Y-79529000D01*
X89455000Y-79489000D02*
X105545000Y-79489000D01*
X89459000Y-79449000D02*
X105541000Y-79449000D01*
X89463000Y-79409000D02*
X105537000Y-79409000D01*
X89467000Y-79369000D02*
X105533000Y-79369000D01*
X89472000Y-79329000D02*
X105528000Y-79329000D01*
X89476000Y-79289000D02*
X105524000Y-79289000D01*
X89481000Y-79249000D02*
X105519000Y-79249000D01*
X89486000Y-79209000D02*
X105514000Y-79209000D01*
X89492000Y-79169000D02*
X105508000Y-79169000D01*
X89497000Y-79129000D02*
X105503000Y-79129000D01*
X89503000Y-79089000D02*
X105497000Y-79089000D01*
X89509000Y-79049000D02*
X105491000Y-79049000D01*
X89515000Y-79009000D02*
X105485000Y-79009000D01*
X89521000Y-78969000D02*
X105479000Y-78969000D01*
X89528000Y-78929000D02*
X105472000Y-78929000D01*
X89534000Y-78889000D02*
X105466000Y-78889000D01*
X89541000Y-78849000D02*
X105459000Y-78849000D01*
X89548000Y-78809000D02*
X105452000Y-78809000D01*
X89556000Y-78769000D02*
X105444000Y-78769000D01*
X89563000Y-78729000D02*
X105437000Y-78729000D01*
X89571000Y-78689000D02*
X105429000Y-78689000D01*
X89579000Y-78649000D02*
X105421000Y-78649000D01*
X89587000Y-78609000D02*
X105413000Y-78609000D01*
X89595000Y-78569000D02*
X105405000Y-78569000D01*
X89604000Y-78529000D02*
X105396000Y-78529000D01*
X89613000Y-78489000D02*
X105387000Y-78489000D01*
X89622000Y-78449000D02*
X105378000Y-78449000D01*
X89631000Y-78409000D02*
X105369000Y-78409000D01*
X89640000Y-78369000D02*
X105360000Y-78369000D01*
X89650000Y-78329000D02*
X105350000Y-78329000D01*
X89660000Y-78289000D02*
X105340000Y-78289000D01*
X89670000Y-78249000D02*
X105330000Y-78249000D01*
X89680000Y-78209000D02*
X105320000Y-78209000D01*
X89690000Y-78169000D02*
X105310000Y-78169000D01*
X89701000Y-78129000D02*
X105299000Y-78129000D01*
X89712000Y-78089000D02*
X105288000Y-78089000D01*
X89723000Y-78049000D02*
X105277000Y-78049000D01*
X89735000Y-78009000D02*
X105265000Y-78009000D01*
X89746000Y-77969000D02*
X105254000Y-77969000D01*
X89758000Y-77929000D02*
X96060000Y-77929000D01*
X98940000Y-77929000D02*
X105242000Y-77929000D01*
X89770000Y-77889000D02*
X96060000Y-77889000D01*
X98940000Y-77889000D02*
X105230000Y-77889000D01*
X89782000Y-77849000D02*
X96060000Y-77849000D01*
X98940000Y-77849000D02*
X105218000Y-77849000D01*
X89795000Y-77809000D02*
X96060000Y-77809000D01*
X98940000Y-77809000D02*
X105205000Y-77809000D01*
X89807000Y-77769000D02*
X96060000Y-77769000D01*
X98940000Y-77769000D02*
X105193000Y-77769000D01*
X89820000Y-77729000D02*
X96060000Y-77729000D01*
X98940000Y-77729000D02*
X105180000Y-77729000D01*
X89834000Y-77689000D02*
X96060000Y-77689000D01*
X98940000Y-77689000D02*
X105166000Y-77689000D01*
X89847000Y-77649000D02*
X96060000Y-77649000D01*
X98940000Y-77649000D02*
X105153000Y-77649000D01*
X89861000Y-77609000D02*
X96060000Y-77609000D01*
X98940000Y-77609000D02*
X105139000Y-77609000D01*
X89875000Y-77569000D02*
X96060000Y-77569000D01*
X98940000Y-77569000D02*
X105125000Y-77569000D01*
X89889000Y-77529000D02*
X96060000Y-77529000D01*
X98940000Y-77529000D02*
X105111000Y-77529000D01*
X89903000Y-77489000D02*
X96060000Y-77489000D01*
X98940000Y-77489000D02*
X105097000Y-77489000D01*
X89918000Y-77449000D02*
X96060000Y-77449000D01*
X98940000Y-77449000D02*
X105082000Y-77449000D01*
X89932000Y-77409000D02*
X96060000Y-77409000D01*
X98940000Y-77409000D02*
X105068000Y-77409000D01*
X89947000Y-77369000D02*
X96060000Y-77369000D01*
X98940000Y-77369000D02*
X105053000Y-77369000D01*
X89963000Y-77329000D02*
X96060000Y-77329000D01*
X98940000Y-77329000D02*
X105037000Y-77329000D01*
X89978000Y-77289000D02*
X96060000Y-77289000D01*
X98940000Y-77289000D02*
X105022000Y-77289000D01*
X89994000Y-77249000D02*
X96060000Y-77249000D01*
X98940000Y-77249000D02*
X105006000Y-77249000D01*
X90010000Y-77209000D02*
X96060000Y-77209000D01*
X98940000Y-77209000D02*
X104990000Y-77209000D01*
X90026000Y-77169000D02*
X96060000Y-77169000D01*
X98940000Y-77169000D02*
X104974000Y-77169000D01*
X90043000Y-77129000D02*
X96060000Y-77129000D01*
X98940000Y-77129000D02*
X104957000Y-77129000D01*
X90060000Y-77089000D02*
X96060000Y-77089000D01*
X98940000Y-77089000D02*
X104940000Y-77089000D01*
X90077000Y-77049000D02*
X96060000Y-77049000D01*
X98940000Y-77049000D02*
X104923000Y-77049000D01*
X90094000Y-77009000D02*
X96060000Y-77009000D01*
X98940000Y-77009000D02*
X104906000Y-77009000D01*
X90111000Y-76969000D02*
X96060000Y-76969000D01*
X98940000Y-76969000D02*
X104889000Y-76969000D01*
X90129000Y-76929000D02*
X96060000Y-76929000D01*
X98940000Y-76929000D02*
X104871000Y-76929000D01*
X90147000Y-76889000D02*
X96060000Y-76889000D01*
X98940000Y-76889000D02*
X104853000Y-76889000D01*
X90166000Y-76849000D02*
X96060000Y-76849000D01*
X98940000Y-76849000D02*
X104834000Y-76849000D01*
X90184000Y-76809000D02*
X96060000Y-76809000D01*
X98940000Y-76809000D02*
X104816000Y-76809000D01*
X90203000Y-76769000D02*
X96060000Y-76769000D01*
X98940000Y-76769000D02*
X104797000Y-76769000D01*
X90222000Y-76729000D02*
X96060000Y-76729000D01*
X98940000Y-76729000D02*
X104778000Y-76729000D01*
X90242000Y-76689000D02*
X96060000Y-76689000D01*
X98940000Y-76689000D02*
X104758000Y-76689000D01*
X90261000Y-76649000D02*
X96060000Y-76649000D01*
X98940000Y-76649000D02*
X104739000Y-76649000D01*
X90281000Y-76609000D02*
X96060000Y-76609000D01*
X98940000Y-76609000D02*
X104719000Y-76609000D01*
X90301000Y-76569000D02*
X96060000Y-76569000D01*
X98940000Y-76569000D02*
X104699000Y-76569000D01*
X90322000Y-76529000D02*
X96060000Y-76529000D01*
X98940000Y-76529000D02*
X104678000Y-76529000D01*
X90343000Y-76489000D02*
X96060000Y-76489000D01*
X98940000Y-76489000D02*
X104657000Y-76489000D01*
X90364000Y-76449000D02*
X96060000Y-76449000D01*
X98940000Y-76449000D02*
X104636000Y-76449000D01*
X90385000Y-76409000D02*
X96060000Y-76409000D01*
X98940000Y-76409000D02*
X104615000Y-76409000D01*
X90406000Y-76369000D02*
X96060000Y-76369000D01*
X98940000Y-76369000D02*
X104594000Y-76369000D01*
X90428000Y-76329000D02*
X96060000Y-76329000D01*
X98940000Y-76329000D02*
X104572000Y-76329000D01*
X90451000Y-76289000D02*
X96060000Y-76289000D01*
X98940000Y-76289000D02*
X104549000Y-76289000D01*
X90473000Y-76249000D02*
X96060000Y-76249000D01*
X98940000Y-76249000D02*
X104527000Y-76249000D01*
X90496000Y-76209000D02*
X96060000Y-76209000D01*
X98940000Y-76209000D02*
X104504000Y-76209000D01*
X90519000Y-76169000D02*
X96060000Y-76169000D01*
X98940000Y-76169000D02*
X104481000Y-76169000D01*
X90542000Y-76129000D02*
X96060000Y-76129000D01*
X98940000Y-76129000D02*
X104458000Y-76129000D01*
X90566000Y-76089000D02*
X96060000Y-76089000D01*
X98940000Y-76089000D02*
X104434000Y-76089000D01*
X90590000Y-76049000D02*
X96060000Y-76049000D01*
X98940000Y-76049000D02*
X104410000Y-76049000D01*
X90614000Y-76009000D02*
X96060000Y-76009000D01*
X98940000Y-76009000D02*
X104386000Y-76009000D01*
X90639000Y-75969000D02*
X96060000Y-75969000D01*
X98940000Y-75969000D02*
X104361000Y-75969000D01*
X90664000Y-75929000D02*
X96060000Y-75929000D01*
X98940000Y-75929000D02*
X104336000Y-75929000D01*
X90689000Y-75889000D02*
X96060000Y-75889000D01*
X98940000Y-75889000D02*
X104311000Y-75889000D01*
X90715000Y-75849000D02*
X96060000Y-75849000D01*
X98940000Y-75849000D02*
X104285000Y-75849000D01*
X90741000Y-75809000D02*
X96060000Y-75809000D01*
X98940000Y-75809000D02*
X104259000Y-75809000D01*
X90767000Y-75769000D02*
X96060000Y-75769000D01*
X98940000Y-75769000D02*
X104233000Y-75769000D01*
X90794000Y-75729000D02*
X96060000Y-75729000D01*
X98940000Y-75729000D02*
X104206000Y-75729000D01*
X90821000Y-75689000D02*
X96060000Y-75689000D01*
X98940000Y-75689000D02*
X104179000Y-75689000D01*
X90848000Y-75649000D02*
X96060000Y-75649000D01*
X98940000Y-75649000D02*
X104152000Y-75649000D01*
X90876000Y-75609000D02*
X96060000Y-75609000D01*
X98940000Y-75609000D02*
X104124000Y-75609000D01*
X90904000Y-75569000D02*
X96060000Y-75569000D01*
X98940000Y-75569000D02*
X104096000Y-75569000D01*
X90932000Y-75529000D02*
X96060000Y-75529000D01*
X98940000Y-75529000D02*
X104068000Y-75529000D01*
X90961000Y-75489000D02*
X96060000Y-75489000D01*
X98940000Y-75489000D02*
X104039000Y-75489000D01*
X90990000Y-75449000D02*
X96060000Y-75449000D01*
X98940000Y-75449000D02*
X104010000Y-75449000D01*
X91020000Y-75409000D02*
X96060000Y-75409000D01*
X98940000Y-75409000D02*
X103980000Y-75409000D01*
X91050000Y-75369000D02*
X96060000Y-75369000D01*
X98940000Y-75369000D02*
X103950000Y-75369000D01*
X91080000Y-75329000D02*
X96060000Y-75329000D01*
X98940000Y-75329000D02*
X103920000Y-75329000D01*
X91110000Y-75289000D02*
X96060000Y-75289000D01*
X98940000Y-75289000D02*
X103890000Y-75289000D01*
X91142000Y-75249000D02*
X96060000Y-75249000D01*
X98940000Y-75249000D02*
X103858000Y-75249000D01*
X91173000Y-75209000D02*
X96060000Y-75209000D01*
X98940000Y-75209000D02*
X103827000Y-75209000D01*
X91205000Y-75169000D02*
X96060000Y-75169000D01*
X98940000Y-75169000D02*
X103795000Y-75169000D01*
X91237000Y-75129000D02*
X96060000Y-75129000D01*
X98940000Y-75129000D02*
X103763000Y-75129000D01*
X91270000Y-75089000D02*
X96060000Y-75089000D01*
X98940000Y-75089000D02*
X103730000Y-75089000D01*
X91303000Y-75049000D02*
X103697000Y-75049000D01*
X91337000Y-75009000D02*
X103663000Y-75009000D01*
X91371000Y-74969000D02*
X103629000Y-74969000D01*
X91405000Y-74929000D02*
X103595000Y-74929000D01*
X91440000Y-74889000D02*
X103560000Y-74889000D01*
X91475000Y-74849000D02*
X103525000Y-74849000D01*
X91511000Y-74809000D02*
X103489000Y-74809000D01*
X91548000Y-74769000D02*
X103452000Y-74769000D01*
X91584000Y-74729000D02*
X103416000Y-74729000D01*
X91622000Y-74689000D02*
X103378000Y-74689000D01*
X91660000Y-74649000D02*
X103340000Y-74649000D01*
X91698000Y-74609000D02*
X103302000Y-74609000D01*
X91737000Y-74569000D02*
X103263000Y-74569000D01*
X91776000Y-74529000D02*
X103224000Y-74529000D01*
X91816000Y-74489000D02*
X103184000Y-74489000D01*
X91857000Y-74449000D02*
X103143000Y-74449000D01*
X91898000Y-74409000D02*
X103102000Y-74409000D01*
X91940000Y-74369000D02*
X103060000Y-74369000D01*
X91982000Y-74329000D02*
X103018000Y-74329000D01*
X92025000Y-74289000D02*
X102975000Y-74289000D01*
X92068000Y-74249000D02*
X102932000Y-74249000D01*
X92112000Y-74209000D02*
X102888000Y-74209000D01*
X92157000Y-74169000D02*
X102843000Y-74169000D01*
X92203000Y-74129000D02*
X102797000Y-74129000D01*
X92249000Y-74089000D02*
X102751000Y-74089000D01*
X92296000Y-74049000D02*
X102704000Y-74049000D01*
X92344000Y-74009000D02*
X102656000Y-74009000D01*
X92392000Y-73969000D02*
X102608000Y-73969000D01*
X92441000Y-73929000D02*
X102559000Y-73929000D01*
X92491000Y-73889000D02*
X102509000Y-73889000D01*
X92542000Y-73849000D02*
X102458000Y-73849000D01*
X92594000Y-73809000D02*
X102406000Y-73809000D01*
X92646000Y-73769000D02*
X102354000Y-73769000D01*
X92700000Y-73729000D02*
X102300000Y-73729000D01*
X92754000Y-73689000D02*
X102246000Y-73689000D01*
X92809000Y-73649000D02*
X102191000Y-73649000D01*
X92866000Y-73609000D02*
X102134000Y-73609000D01*
X92923000Y-73569000D02*
X102077000Y-73569000D01*
X92981000Y-73529000D02*
X102019000Y-73529000D01*
X93041000Y-73489000D02*
X101959000Y-73489000D01*
X93102000Y-73449000D02*
X101898000Y-73449000D01*
X93164000Y-73409000D02*
X101836000Y-73409000D01*
X93227000Y-73369000D02*
X101773000Y-73369000D01*
X93291000Y-73329000D02*
X101709000Y-73329000D01*
X93357000Y-73289000D02*
X101643000Y-73289000D01*
X93424000Y-73249000D02*
X101576000Y-73249000D01*
X93493000Y-73209000D02*
X101507000Y-73209000D01*
X93564000Y-73169000D02*
X101436000Y-73169000D01*
X93636000Y-73129000D02*
X101364000Y-73129000D01*
X93710000Y-73089000D02*
X101290000Y-73089000D01*
X93785000Y-73049000D02*
X101215000Y-73049000D01*
X93863000Y-73009000D02*
X101137000Y-73009000D01*
X93943000Y-72969000D02*
X101057000Y-72969000D01*
X94025000Y-72929000D02*
X100975000Y-72929000D01*
X94110000Y-72889000D02*
X100890000Y-72889000D01*
X94197000Y-72849000D02*
X100803000Y-72849000D01*
X94287000Y-72809000D02*
X100713000Y-72809000D01*
X94380000Y-72769000D02*
X100620000Y-72769000D01*
X94476000Y-72729000D02*
X100524000Y-72729000D01*
X94576000Y-72689000D02*
X100424000Y-72689000D01*
X94680000Y-72649000D02*
X100320000Y-72649000D01*
X94789000Y-72609000D02*
X100211000Y-72609000D01*
X94903000Y-72569000D02*
X100097000Y-72569000D01*
X95022000Y-72529000D02*
X99978000Y-72529000D01*
X95149000Y-72489000D02*
X99851000Y-72489000D01*
X95282000Y-72449000D02*
X99718000Y-72449000D01*
X95426000Y-72409000D02*
X99574000Y-72409000D01*
X95580000Y-72369000D02*
X99420000Y-72369000D01*
X95748000Y-72329000D02*
X99252000Y-72329000D01*
X95936000Y-72289000D02*
X99064000Y-72289000D01*
X96149000Y-72249000D02*
X98851000Y-72249000D01*
X96402000Y-72209000D02*
X98598000Y-72209000D01*
X96735000Y-72169000D02*
X98265000Y-72169000D01*
X92945000Y-88939491D02*
X92945000Y-87339491D01*
X92145000Y-88139491D02*
X93745000Y-88139491D01*
%TO.C,C2*%
X140370000Y-85750000D02*
G75*
G03*
X140370000Y-85750000I-5120000J0D01*
G01*
%TO.C,C1*%
X151120000Y-85750000D02*
G75*
G03*
X151120000Y-85750000I-5120000J0D01*
G01*
%TO.C,Q1*%
D10*
X151654761Y-67047619D02*
X151559523Y-67000000D01*
X151464285Y-66904761D01*
X151321428Y-66761904D01*
X151226190Y-66714285D01*
X151130952Y-66714285D01*
X151178571Y-66952380D02*
X151083333Y-66904761D01*
X150988095Y-66809523D01*
X150940476Y-66619047D01*
X150940476Y-66285714D01*
X150988095Y-66095238D01*
X151083333Y-66000000D01*
X151178571Y-65952380D01*
X151369047Y-65952380D01*
X151464285Y-66000000D01*
X151559523Y-66095238D01*
X151607142Y-66285714D01*
X151607142Y-66619047D01*
X151559523Y-66809523D01*
X151464285Y-66904761D01*
X151369047Y-66952380D01*
X151178571Y-66952380D01*
X152559523Y-66952380D02*
X151988095Y-66952380D01*
X152273809Y-66952380D02*
X152273809Y-65952380D01*
X152178571Y-66095238D01*
X152083333Y-66190476D01*
X151988095Y-66238095D01*
%TO.C,D2*%
X147761904Y-65452380D02*
X147761904Y-64452380D01*
X148000000Y-64452380D01*
X148142857Y-64500000D01*
X148238095Y-64595238D01*
X148285714Y-64690476D01*
X148333333Y-64880952D01*
X148333333Y-65023809D01*
X148285714Y-65214285D01*
X148238095Y-65309523D01*
X148142857Y-65404761D01*
X148000000Y-65452380D01*
X147761904Y-65452380D01*
X148714285Y-64547619D02*
X148761904Y-64500000D01*
X148857142Y-64452380D01*
X149095238Y-64452380D01*
X149190476Y-64500000D01*
X149238095Y-64547619D01*
X149285714Y-64642857D01*
X149285714Y-64738095D01*
X149238095Y-64880952D01*
X148666666Y-65452380D01*
X149285714Y-65452380D01*
%TO.C,R15*%
X144607142Y-70202380D02*
X144273809Y-69726190D01*
X144035714Y-70202380D02*
X144035714Y-69202380D01*
X144416666Y-69202380D01*
X144511904Y-69250000D01*
X144559523Y-69297619D01*
X144607142Y-69392857D01*
X144607142Y-69535714D01*
X144559523Y-69630952D01*
X144511904Y-69678571D01*
X144416666Y-69726190D01*
X144035714Y-69726190D01*
X145559523Y-70202380D02*
X144988095Y-70202380D01*
X145273809Y-70202380D02*
X145273809Y-69202380D01*
X145178571Y-69345238D01*
X145083333Y-69440476D01*
X144988095Y-69488095D01*
X146464285Y-69202380D02*
X145988095Y-69202380D01*
X145940476Y-69678571D01*
X145988095Y-69630952D01*
X146083333Y-69583333D01*
X146321428Y-69583333D01*
X146416666Y-69630952D01*
X146464285Y-69678571D01*
X146511904Y-69773809D01*
X146511904Y-70011904D01*
X146464285Y-70107142D01*
X146416666Y-70154761D01*
X146321428Y-70202380D01*
X146083333Y-70202380D01*
X145988095Y-70154761D01*
X145940476Y-70107142D01*
%TO.C,R14*%
X148357142Y-57202380D02*
X148023809Y-56726190D01*
X147785714Y-57202380D02*
X147785714Y-56202380D01*
X148166666Y-56202380D01*
X148261904Y-56250000D01*
X148309523Y-56297619D01*
X148357142Y-56392857D01*
X148357142Y-56535714D01*
X148309523Y-56630952D01*
X148261904Y-56678571D01*
X148166666Y-56726190D01*
X147785714Y-56726190D01*
X149309523Y-57202380D02*
X148738095Y-57202380D01*
X149023809Y-57202380D02*
X149023809Y-56202380D01*
X148928571Y-56345238D01*
X148833333Y-56440476D01*
X148738095Y-56488095D01*
X150166666Y-56535714D02*
X150166666Y-57202380D01*
X149928571Y-56154761D02*
X149690476Y-56869047D01*
X150309523Y-56869047D01*
%TO.C,R13*%
X148357142Y-62702380D02*
X148023809Y-62226190D01*
X147785714Y-62702380D02*
X147785714Y-61702380D01*
X148166666Y-61702380D01*
X148261904Y-61750000D01*
X148309523Y-61797619D01*
X148357142Y-61892857D01*
X148357142Y-62035714D01*
X148309523Y-62130952D01*
X148261904Y-62178571D01*
X148166666Y-62226190D01*
X147785714Y-62226190D01*
X149309523Y-62702380D02*
X148738095Y-62702380D01*
X149023809Y-62702380D02*
X149023809Y-61702380D01*
X148928571Y-61845238D01*
X148833333Y-61940476D01*
X148738095Y-61988095D01*
X149642857Y-61702380D02*
X150261904Y-61702380D01*
X149928571Y-62083333D01*
X150071428Y-62083333D01*
X150166666Y-62130952D01*
X150214285Y-62178571D01*
X150261904Y-62273809D01*
X150261904Y-62511904D01*
X150214285Y-62607142D01*
X150166666Y-62654761D01*
X150071428Y-62702380D01*
X149785714Y-62702380D01*
X149690476Y-62654761D01*
X149642857Y-62607142D01*
%TO.C,D1*%
X147761904Y-59952380D02*
X147761904Y-58952380D01*
X148000000Y-58952380D01*
X148142857Y-59000000D01*
X148238095Y-59095238D01*
X148285714Y-59190476D01*
X148333333Y-59380952D01*
X148333333Y-59523809D01*
X148285714Y-59714285D01*
X148238095Y-59809523D01*
X148142857Y-59904761D01*
X148000000Y-59952380D01*
X147761904Y-59952380D01*
X149285714Y-59952380D02*
X148714285Y-59952380D01*
X149000000Y-59952380D02*
X149000000Y-58952380D01*
X148904761Y-59095238D01*
X148809523Y-59190476D01*
X148714285Y-59238095D01*
%TO.C,C10*%
X152857142Y-81857142D02*
X152809523Y-81904761D01*
X152666666Y-81952380D01*
X152571428Y-81952380D01*
X152428571Y-81904761D01*
X152333333Y-81809523D01*
X152285714Y-81714285D01*
X152238095Y-81523809D01*
X152238095Y-81380952D01*
X152285714Y-81190476D01*
X152333333Y-81095238D01*
X152428571Y-81000000D01*
X152571428Y-80952380D01*
X152666666Y-80952380D01*
X152809523Y-81000000D01*
X152857142Y-81047619D01*
X153809523Y-81952380D02*
X153238095Y-81952380D01*
X153523809Y-81952380D02*
X153523809Y-80952380D01*
X153428571Y-81095238D01*
X153333333Y-81190476D01*
X153238095Y-81238095D01*
X154428571Y-80952380D02*
X154523809Y-80952380D01*
X154619047Y-81000000D01*
X154666666Y-81047619D01*
X154714285Y-81142857D01*
X154761904Y-81333333D01*
X154761904Y-81571428D01*
X154714285Y-81761904D01*
X154666666Y-81857142D01*
X154619047Y-81904761D01*
X154523809Y-81952380D01*
X154428571Y-81952380D01*
X154333333Y-81904761D01*
X154285714Y-81857142D01*
X154238095Y-81761904D01*
X154190476Y-81571428D01*
X154190476Y-81333333D01*
X154238095Y-81142857D01*
X154285714Y-81047619D01*
X154333333Y-81000000D01*
X154428571Y-80952380D01*
%TO.C,R4*%
X143702380Y-77416666D02*
X143226190Y-77750000D01*
X143702380Y-77988095D02*
X142702380Y-77988095D01*
X142702380Y-77607142D01*
X142750000Y-77511904D01*
X142797619Y-77464285D01*
X142892857Y-77416666D01*
X143035714Y-77416666D01*
X143130952Y-77464285D01*
X143178571Y-77511904D01*
X143226190Y-77607142D01*
X143226190Y-77988095D01*
X143035714Y-76559523D02*
X143702380Y-76559523D01*
X142654761Y-76797619D02*
X143369047Y-77035714D01*
X143369047Y-76416666D01*
%TO.C,R9*%
X127702380Y-83916666D02*
X127226190Y-84250000D01*
X127702380Y-84488095D02*
X126702380Y-84488095D01*
X126702380Y-84107142D01*
X126750000Y-84011904D01*
X126797619Y-83964285D01*
X126892857Y-83916666D01*
X127035714Y-83916666D01*
X127130952Y-83964285D01*
X127178571Y-84011904D01*
X127226190Y-84107142D01*
X127226190Y-84488095D01*
X127702380Y-83440476D02*
X127702380Y-83250000D01*
X127654761Y-83154761D01*
X127607142Y-83107142D01*
X127464285Y-83011904D01*
X127273809Y-82964285D01*
X126892857Y-82964285D01*
X126797619Y-83011904D01*
X126750000Y-83059523D01*
X126702380Y-83154761D01*
X126702380Y-83345238D01*
X126750000Y-83440476D01*
X126797619Y-83488095D01*
X126892857Y-83535714D01*
X127130952Y-83535714D01*
X127226190Y-83488095D01*
X127273809Y-83440476D01*
X127321428Y-83345238D01*
X127321428Y-83154761D01*
X127273809Y-83059523D01*
X127226190Y-83011904D01*
X127130952Y-82964285D01*
%TO.C,U1*%
X116738095Y-56452380D02*
X116738095Y-57261904D01*
X116785714Y-57357142D01*
X116833333Y-57404761D01*
X116928571Y-57452380D01*
X117119047Y-57452380D01*
X117214285Y-57404761D01*
X117261904Y-57357142D01*
X117309523Y-57261904D01*
X117309523Y-56452380D01*
X118309523Y-57452380D02*
X117738095Y-57452380D01*
X118023809Y-57452380D02*
X118023809Y-56452380D01*
X117928571Y-56595238D01*
X117833333Y-56690476D01*
X117738095Y-56738095D01*
%TO.C,R12*%
X111202380Y-84642857D02*
X110726190Y-84976190D01*
X111202380Y-85214285D02*
X110202380Y-85214285D01*
X110202380Y-84833333D01*
X110250000Y-84738095D01*
X110297619Y-84690476D01*
X110392857Y-84642857D01*
X110535714Y-84642857D01*
X110630952Y-84690476D01*
X110678571Y-84738095D01*
X110726190Y-84833333D01*
X110726190Y-85214285D01*
X111202380Y-83690476D02*
X111202380Y-84261904D01*
X111202380Y-83976190D02*
X110202380Y-83976190D01*
X110345238Y-84071428D01*
X110440476Y-84166666D01*
X110488095Y-84261904D01*
X110297619Y-83309523D02*
X110250000Y-83261904D01*
X110202380Y-83166666D01*
X110202380Y-82928571D01*
X110250000Y-82833333D01*
X110297619Y-82785714D01*
X110392857Y-82738095D01*
X110488095Y-82738095D01*
X110630952Y-82785714D01*
X111202380Y-83357142D01*
X111202380Y-82738095D01*
%TO.C,R11*%
X116702380Y-84642857D02*
X116226190Y-84976190D01*
X116702380Y-85214285D02*
X115702380Y-85214285D01*
X115702380Y-84833333D01*
X115750000Y-84738095D01*
X115797619Y-84690476D01*
X115892857Y-84642857D01*
X116035714Y-84642857D01*
X116130952Y-84690476D01*
X116178571Y-84738095D01*
X116226190Y-84833333D01*
X116226190Y-85214285D01*
X116702380Y-83690476D02*
X116702380Y-84261904D01*
X116702380Y-83976190D02*
X115702380Y-83976190D01*
X115845238Y-84071428D01*
X115940476Y-84166666D01*
X115988095Y-84261904D01*
X116702380Y-82738095D02*
X116702380Y-83309523D01*
X116702380Y-83023809D02*
X115702380Y-83023809D01*
X115845238Y-83119047D01*
X115940476Y-83214285D01*
X115988095Y-83309523D01*
%TO.C,R10*%
X122202380Y-84642857D02*
X121726190Y-84976190D01*
X122202380Y-85214285D02*
X121202380Y-85214285D01*
X121202380Y-84833333D01*
X121250000Y-84738095D01*
X121297619Y-84690476D01*
X121392857Y-84642857D01*
X121535714Y-84642857D01*
X121630952Y-84690476D01*
X121678571Y-84738095D01*
X121726190Y-84833333D01*
X121726190Y-85214285D01*
X122202380Y-83690476D02*
X122202380Y-84261904D01*
X122202380Y-83976190D02*
X121202380Y-83976190D01*
X121345238Y-84071428D01*
X121440476Y-84166666D01*
X121488095Y-84261904D01*
X121202380Y-83071428D02*
X121202380Y-82976190D01*
X121250000Y-82880952D01*
X121297619Y-82833333D01*
X121392857Y-82785714D01*
X121583333Y-82738095D01*
X121821428Y-82738095D01*
X122011904Y-82785714D01*
X122107142Y-82833333D01*
X122154761Y-82880952D01*
X122202380Y-82976190D01*
X122202380Y-83071428D01*
X122154761Y-83166666D01*
X122107142Y-83214285D01*
X122011904Y-83261904D01*
X121821428Y-83309523D01*
X121583333Y-83309523D01*
X121392857Y-83261904D01*
X121297619Y-83214285D01*
X121250000Y-83166666D01*
X121202380Y-83071428D01*
%TO.C,R8*%
X140952380Y-77416666D02*
X140476190Y-77750000D01*
X140952380Y-77988095D02*
X139952380Y-77988095D01*
X139952380Y-77607142D01*
X140000000Y-77511904D01*
X140047619Y-77464285D01*
X140142857Y-77416666D01*
X140285714Y-77416666D01*
X140380952Y-77464285D01*
X140428571Y-77511904D01*
X140476190Y-77607142D01*
X140476190Y-77988095D01*
X140380952Y-76845238D02*
X140333333Y-76940476D01*
X140285714Y-76988095D01*
X140190476Y-77035714D01*
X140142857Y-77035714D01*
X140047619Y-76988095D01*
X140000000Y-76940476D01*
X139952380Y-76845238D01*
X139952380Y-76654761D01*
X140000000Y-76559523D01*
X140047619Y-76511904D01*
X140142857Y-76464285D01*
X140190476Y-76464285D01*
X140285714Y-76511904D01*
X140333333Y-76559523D01*
X140380952Y-76654761D01*
X140380952Y-76845238D01*
X140428571Y-76940476D01*
X140476190Y-76988095D01*
X140571428Y-77035714D01*
X140761904Y-77035714D01*
X140857142Y-76988095D01*
X140904761Y-76940476D01*
X140952380Y-76845238D01*
X140952380Y-76654761D01*
X140904761Y-76559523D01*
X140857142Y-76511904D01*
X140761904Y-76464285D01*
X140571428Y-76464285D01*
X140476190Y-76511904D01*
X140428571Y-76559523D01*
X140380952Y-76654761D01*
%TO.C,R7*%
X149202380Y-77416666D02*
X148726190Y-77750000D01*
X149202380Y-77988095D02*
X148202380Y-77988095D01*
X148202380Y-77607142D01*
X148250000Y-77511904D01*
X148297619Y-77464285D01*
X148392857Y-77416666D01*
X148535714Y-77416666D01*
X148630952Y-77464285D01*
X148678571Y-77511904D01*
X148726190Y-77607142D01*
X148726190Y-77988095D01*
X148202380Y-77083333D02*
X148202380Y-76416666D01*
X149202380Y-76845238D01*
%TO.C,R6*%
X129952380Y-77416666D02*
X129476190Y-77750000D01*
X129952380Y-77988095D02*
X128952380Y-77988095D01*
X128952380Y-77607142D01*
X129000000Y-77511904D01*
X129047619Y-77464285D01*
X129142857Y-77416666D01*
X129285714Y-77416666D01*
X129380952Y-77464285D01*
X129428571Y-77511904D01*
X129476190Y-77607142D01*
X129476190Y-77988095D01*
X128952380Y-76559523D02*
X128952380Y-76750000D01*
X129000000Y-76845238D01*
X129047619Y-76892857D01*
X129190476Y-76988095D01*
X129380952Y-77035714D01*
X129761904Y-77035714D01*
X129857142Y-76988095D01*
X129904761Y-76940476D01*
X129952380Y-76845238D01*
X129952380Y-76654761D01*
X129904761Y-76559523D01*
X129857142Y-76511904D01*
X129761904Y-76464285D01*
X129523809Y-76464285D01*
X129428571Y-76511904D01*
X129380952Y-76559523D01*
X129333333Y-76654761D01*
X129333333Y-76845238D01*
X129380952Y-76940476D01*
X129428571Y-76988095D01*
X129523809Y-77035714D01*
%TO.C,R5*%
X138202380Y-77416666D02*
X137726190Y-77750000D01*
X138202380Y-77988095D02*
X137202380Y-77988095D01*
X137202380Y-77607142D01*
X137250000Y-77511904D01*
X137297619Y-77464285D01*
X137392857Y-77416666D01*
X137535714Y-77416666D01*
X137630952Y-77464285D01*
X137678571Y-77511904D01*
X137726190Y-77607142D01*
X137726190Y-77988095D01*
X137202380Y-76511904D02*
X137202380Y-76988095D01*
X137678571Y-77035714D01*
X137630952Y-76988095D01*
X137583333Y-76892857D01*
X137583333Y-76654761D01*
X137630952Y-76559523D01*
X137678571Y-76511904D01*
X137773809Y-76464285D01*
X138011904Y-76464285D01*
X138107142Y-76511904D01*
X138154761Y-76559523D01*
X138202380Y-76654761D01*
X138202380Y-76892857D01*
X138154761Y-76988095D01*
X138107142Y-77035714D01*
%TO.C,R3*%
X146452380Y-77416666D02*
X145976190Y-77750000D01*
X146452380Y-77988095D02*
X145452380Y-77988095D01*
X145452380Y-77607142D01*
X145500000Y-77511904D01*
X145547619Y-77464285D01*
X145642857Y-77416666D01*
X145785714Y-77416666D01*
X145880952Y-77464285D01*
X145928571Y-77511904D01*
X145976190Y-77607142D01*
X145976190Y-77988095D01*
X145452380Y-77083333D02*
X145452380Y-76464285D01*
X145833333Y-76797619D01*
X145833333Y-76654761D01*
X145880952Y-76559523D01*
X145928571Y-76511904D01*
X146023809Y-76464285D01*
X146261904Y-76464285D01*
X146357142Y-76511904D01*
X146404761Y-76559523D01*
X146452380Y-76654761D01*
X146452380Y-76940476D01*
X146404761Y-77035714D01*
X146357142Y-77083333D01*
%TO.C,R2*%
X132702380Y-77416666D02*
X132226190Y-77750000D01*
X132702380Y-77988095D02*
X131702380Y-77988095D01*
X131702380Y-77607142D01*
X131750000Y-77511904D01*
X131797619Y-77464285D01*
X131892857Y-77416666D01*
X132035714Y-77416666D01*
X132130952Y-77464285D01*
X132178571Y-77511904D01*
X132226190Y-77607142D01*
X132226190Y-77988095D01*
X131797619Y-77035714D02*
X131750000Y-76988095D01*
X131702380Y-76892857D01*
X131702380Y-76654761D01*
X131750000Y-76559523D01*
X131797619Y-76511904D01*
X131892857Y-76464285D01*
X131988095Y-76464285D01*
X132130952Y-76511904D01*
X132702380Y-77083333D01*
X132702380Y-76464285D01*
%TO.C,R1*%
X135452380Y-77416666D02*
X134976190Y-77750000D01*
X135452380Y-77988095D02*
X134452380Y-77988095D01*
X134452380Y-77607142D01*
X134500000Y-77511904D01*
X134547619Y-77464285D01*
X134642857Y-77416666D01*
X134785714Y-77416666D01*
X134880952Y-77464285D01*
X134928571Y-77511904D01*
X134976190Y-77607142D01*
X134976190Y-77988095D01*
X135452380Y-76464285D02*
X135452380Y-77035714D01*
X135452380Y-76750000D02*
X134452380Y-76750000D01*
X134595238Y-76845238D01*
X134690476Y-76940476D01*
X134738095Y-77035714D01*
%TO.C,L1*%
X126333333Y-92452380D02*
X125857142Y-92452380D01*
X125857142Y-91452380D01*
X127190476Y-92452380D02*
X126619047Y-92452380D01*
X126904761Y-92452380D02*
X126904761Y-91452380D01*
X126809523Y-91595238D01*
X126714285Y-91690476D01*
X126619047Y-91738095D01*
%TO.C,C9*%
X111083333Y-63857142D02*
X111035714Y-63904761D01*
X110892857Y-63952380D01*
X110797619Y-63952380D01*
X110654761Y-63904761D01*
X110559523Y-63809523D01*
X110511904Y-63714285D01*
X110464285Y-63523809D01*
X110464285Y-63380952D01*
X110511904Y-63190476D01*
X110559523Y-63095238D01*
X110654761Y-63000000D01*
X110797619Y-62952380D01*
X110892857Y-62952380D01*
X111035714Y-63000000D01*
X111083333Y-63047619D01*
X111559523Y-63952380D02*
X111750000Y-63952380D01*
X111845238Y-63904761D01*
X111892857Y-63857142D01*
X111988095Y-63714285D01*
X112035714Y-63523809D01*
X112035714Y-63142857D01*
X111988095Y-63047619D01*
X111940476Y-63000000D01*
X111845238Y-62952380D01*
X111654761Y-62952380D01*
X111559523Y-63000000D01*
X111511904Y-63047619D01*
X111464285Y-63142857D01*
X111464285Y-63380952D01*
X111511904Y-63476190D01*
X111559523Y-63523809D01*
X111654761Y-63571428D01*
X111845238Y-63571428D01*
X111940476Y-63523809D01*
X111988095Y-63476190D01*
X112035714Y-63380952D01*
%TO.C,C8*%
X139357142Y-66416666D02*
X139404761Y-66464285D01*
X139452380Y-66607142D01*
X139452380Y-66702380D01*
X139404761Y-66845238D01*
X139309523Y-66940476D01*
X139214285Y-66988095D01*
X139023809Y-67035714D01*
X138880952Y-67035714D01*
X138690476Y-66988095D01*
X138595238Y-66940476D01*
X138500000Y-66845238D01*
X138452380Y-66702380D01*
X138452380Y-66607142D01*
X138500000Y-66464285D01*
X138547619Y-66416666D01*
X138880952Y-65845238D02*
X138833333Y-65940476D01*
X138785714Y-65988095D01*
X138690476Y-66035714D01*
X138642857Y-66035714D01*
X138547619Y-65988095D01*
X138500000Y-65940476D01*
X138452380Y-65845238D01*
X138452380Y-65654761D01*
X138500000Y-65559523D01*
X138547619Y-65511904D01*
X138642857Y-65464285D01*
X138690476Y-65464285D01*
X138785714Y-65511904D01*
X138833333Y-65559523D01*
X138880952Y-65654761D01*
X138880952Y-65845238D01*
X138928571Y-65940476D01*
X138976190Y-65988095D01*
X139071428Y-66035714D01*
X139261904Y-66035714D01*
X139357142Y-65988095D01*
X139404761Y-65940476D01*
X139452380Y-65845238D01*
X139452380Y-65654761D01*
X139404761Y-65559523D01*
X139357142Y-65511904D01*
X139261904Y-65464285D01*
X139071428Y-65464285D01*
X138976190Y-65511904D01*
X138928571Y-65559523D01*
X138880952Y-65654761D01*
%TO.C,C7*%
X139357142Y-68916666D02*
X139404761Y-68964285D01*
X139452380Y-69107142D01*
X139452380Y-69202380D01*
X139404761Y-69345238D01*
X139309523Y-69440476D01*
X139214285Y-69488095D01*
X139023809Y-69535714D01*
X138880952Y-69535714D01*
X138690476Y-69488095D01*
X138595238Y-69440476D01*
X138500000Y-69345238D01*
X138452380Y-69202380D01*
X138452380Y-69107142D01*
X138500000Y-68964285D01*
X138547619Y-68916666D01*
X138452380Y-68583333D02*
X138452380Y-67916666D01*
X139452380Y-68345238D01*
%TO.C,C5*%
X115857142Y-60916666D02*
X115904761Y-60964285D01*
X115952380Y-61107142D01*
X115952380Y-61202380D01*
X115904761Y-61345238D01*
X115809523Y-61440476D01*
X115714285Y-61488095D01*
X115523809Y-61535714D01*
X115380952Y-61535714D01*
X115190476Y-61488095D01*
X115095238Y-61440476D01*
X115000000Y-61345238D01*
X114952380Y-61202380D01*
X114952380Y-61107142D01*
X115000000Y-60964285D01*
X115047619Y-60916666D01*
X114952380Y-60011904D02*
X114952380Y-60488095D01*
X115428571Y-60535714D01*
X115380952Y-60488095D01*
X115333333Y-60392857D01*
X115333333Y-60154761D01*
X115380952Y-60059523D01*
X115428571Y-60011904D01*
X115523809Y-59964285D01*
X115761904Y-59964285D01*
X115857142Y-60011904D01*
X115904761Y-60059523D01*
X115952380Y-60154761D01*
X115952380Y-60392857D01*
X115904761Y-60488095D01*
X115857142Y-60535714D01*
%TO.C,C4*%
X102833333Y-56607142D02*
X102785714Y-56654761D01*
X102642857Y-56702380D01*
X102547619Y-56702380D01*
X102404761Y-56654761D01*
X102309523Y-56559523D01*
X102261904Y-56464285D01*
X102214285Y-56273809D01*
X102214285Y-56130952D01*
X102261904Y-55940476D01*
X102309523Y-55845238D01*
X102404761Y-55750000D01*
X102547619Y-55702380D01*
X102642857Y-55702380D01*
X102785714Y-55750000D01*
X102833333Y-55797619D01*
X103690476Y-56035714D02*
X103690476Y-56702380D01*
X103452380Y-55654761D02*
X103214285Y-56369047D01*
X103833333Y-56369047D01*
%TO.C,C3*%
X102833333Y-73357142D02*
X102785714Y-73404761D01*
X102642857Y-73452380D01*
X102547619Y-73452380D01*
X102404761Y-73404761D01*
X102309523Y-73309523D01*
X102261904Y-73214285D01*
X102214285Y-73023809D01*
X102214285Y-72880952D01*
X102261904Y-72690476D01*
X102309523Y-72595238D01*
X102404761Y-72500000D01*
X102547619Y-72452380D01*
X102642857Y-72452380D01*
X102785714Y-72500000D01*
X102833333Y-72547619D01*
X103166666Y-72452380D02*
X103785714Y-72452380D01*
X103452380Y-72833333D01*
X103595238Y-72833333D01*
X103690476Y-72880952D01*
X103738095Y-72928571D01*
X103785714Y-73023809D01*
X103785714Y-73261904D01*
X103738095Y-73357142D01*
X103690476Y-73404761D01*
X103595238Y-73452380D01*
X103309523Y-73452380D01*
X103214285Y-73404761D01*
X103166666Y-73357142D01*
%TO.C,C2*%
X130083333Y-89857142D02*
X130035714Y-89904761D01*
X129892857Y-89952380D01*
X129797619Y-89952380D01*
X129654761Y-89904761D01*
X129559523Y-89809523D01*
X129511904Y-89714285D01*
X129464285Y-89523809D01*
X129464285Y-89380952D01*
X129511904Y-89190476D01*
X129559523Y-89095238D01*
X129654761Y-89000000D01*
X129797619Y-88952380D01*
X129892857Y-88952380D01*
X130035714Y-89000000D01*
X130083333Y-89047619D01*
X130464285Y-89047619D02*
X130511904Y-89000000D01*
X130607142Y-88952380D01*
X130845238Y-88952380D01*
X130940476Y-89000000D01*
X130988095Y-89047619D01*
X131035714Y-89142857D01*
X131035714Y-89238095D01*
X130988095Y-89380952D01*
X130416666Y-89952380D01*
X131035714Y-89952380D01*
%TO.C,C1*%
X141083333Y-89857142D02*
X141035714Y-89904761D01*
X140892857Y-89952380D01*
X140797619Y-89952380D01*
X140654761Y-89904761D01*
X140559523Y-89809523D01*
X140511904Y-89714285D01*
X140464285Y-89523809D01*
X140464285Y-89380952D01*
X140511904Y-89190476D01*
X140559523Y-89095238D01*
X140654761Y-89000000D01*
X140797619Y-88952380D01*
X140892857Y-88952380D01*
X141035714Y-89000000D01*
X141083333Y-89047619D01*
X142035714Y-89952380D02*
X141464285Y-89952380D01*
X141750000Y-89952380D02*
X141750000Y-88952380D01*
X141654761Y-89095238D01*
X141559523Y-89190476D01*
X141464285Y-89238095D01*
%TD*%
M02*
