%TF.GenerationSoftware,KiCad,Pcbnew,(5.1.6-0)*%
%TF.CreationDate,2023-05-10T15:53:48-07:00*%
%TF.ProjectId,LM1876x2_bal,4c4d3138-3736-4783-925f-62616c2e6b69,rev?*%
%TF.SameCoordinates,Original*%
%TF.FileFunction,Soldermask,Bot*%
%TF.FilePolarity,Negative*%
%FSLAX46Y46*%
G04 Gerber Fmt 4.6, Leading zero omitted, Abs format (unit mm)*
G04 Created by KiCad (PCBNEW (5.1.6-0)) date 2023-05-10 15:53:48*
%MOMM*%
%LPD*%
G01*
G04 APERTURE LIST*
%ADD10O,1.800000X1.800000*%
%ADD11R,1.800000X1.800000*%
%ADD12C,1.700000*%
%ADD13R,1.700000X1.700000*%
%ADD14C,2.700000*%
%ADD15O,2.500000X2.500000*%
%ADD16C,2.500000*%
%ADD17C,0.900000*%
%ADD18C,7.100000*%
%ADD19O,1.900000X1.900000*%
%ADD20R,1.900000X1.900000*%
%ADD21C,2.600000*%
%ADD22C,2.900000*%
%ADD23C,2.100000*%
%ADD24R,2.500000X2.500000*%
G04 APERTURE END LIST*
D10*
%TO.C,J9*%
X152210000Y-71750000D03*
D11*
X154750000Y-71750000D03*
%TD*%
D12*
%TO.C,C10*%
X154750000Y-77250000D03*
D13*
X152250000Y-77250000D03*
%TD*%
D14*
%TO.C,J2*%
X104250000Y-95000000D03*
X99250000Y-95000000D03*
%TD*%
D15*
%TO.C,R9*%
X125000000Y-68510000D03*
D16*
X125000000Y-83750000D03*
%TD*%
D17*
%TO.C,H4*%
X155606155Y-94393845D03*
X153750000Y-93625000D03*
X151893845Y-94393845D03*
X151125000Y-96250000D03*
X151893845Y-98106155D03*
X153750000Y-98875000D03*
X155606155Y-98106155D03*
X156375000Y-96250000D03*
D18*
X153750000Y-96250000D03*
%TD*%
D17*
%TO.C,H3*%
X155606155Y-59393845D03*
X153750000Y-58625000D03*
X151893845Y-59393845D03*
X151125000Y-61250000D03*
X151893845Y-63106155D03*
X153750000Y-63875000D03*
X155606155Y-63106155D03*
X156375000Y-61250000D03*
D18*
X153750000Y-61250000D03*
%TD*%
D17*
%TO.C,H2*%
X83106155Y-59393845D03*
X81250000Y-58625000D03*
X79393845Y-59393845D03*
X78625000Y-61250000D03*
X79393845Y-63106155D03*
X81250000Y-63875000D03*
X83106155Y-63106155D03*
X83875000Y-61250000D03*
D18*
X81250000Y-61250000D03*
%TD*%
D17*
%TO.C,H1*%
X83106155Y-94393845D03*
X81250000Y-93625000D03*
X79393845Y-94393845D03*
X78625000Y-96250000D03*
X79393845Y-98106155D03*
X81250000Y-98875000D03*
X83106155Y-98106155D03*
X83875000Y-96250000D03*
D18*
X81250000Y-96250000D03*
%TD*%
D19*
%TO.C,U1*%
X137780000Y-64000000D03*
X136510000Y-58920000D03*
X135240000Y-64000000D03*
X133970000Y-58920000D03*
X132700000Y-64000000D03*
X131430000Y-58920000D03*
X130160000Y-64000000D03*
X128890000Y-58920000D03*
X127620000Y-64000000D03*
X126350000Y-58920000D03*
X125080000Y-64000000D03*
X123810000Y-58920000D03*
X122540000Y-64000000D03*
X121270000Y-58920000D03*
D20*
X120000000Y-64000000D03*
%TD*%
D15*
%TO.C,R12*%
X108500000Y-83740000D03*
D16*
X108500000Y-68500000D03*
%TD*%
D15*
%TO.C,R11*%
X114000000Y-83740000D03*
D16*
X114000000Y-68500000D03*
%TD*%
D15*
%TO.C,R10*%
X119500000Y-68510000D03*
D16*
X119500000Y-83750000D03*
%TD*%
D21*
%TO.C,L1*%
X112400000Y-88190000D03*
X125100000Y-95810000D03*
%TD*%
D22*
%TO.C,J8*%
X85040000Y-81750000D03*
X79960000Y-81750000D03*
%TD*%
%TO.C,J7*%
X85040000Y-75000000D03*
X79960000Y-75000000D03*
%TD*%
%TO.C,J6*%
X85040000Y-68250000D03*
X79960000Y-68250000D03*
%TD*%
%TO.C,J5*%
X97500000Y-92460000D03*
X97500000Y-97540000D03*
%TD*%
%TO.C,J4*%
X106000000Y-92460000D03*
X106000000Y-97540000D03*
%TD*%
D14*
%TO.C,J3*%
X82500000Y-80000000D03*
X82500000Y-75000000D03*
X82500000Y-70000000D03*
%TD*%
D23*
%TO.C,J1*%
X141500000Y-96000000D03*
X138000000Y-96000000D03*
X134500000Y-96000000D03*
%TD*%
D12*
%TO.C,C9*%
X111250000Y-65500000D03*
X116250000Y-65500000D03*
%TD*%
%TO.C,C6*%
G36*
G01*
X116592544Y-58975000D02*
X117907456Y-58975000D01*
G75*
G02*
X118175000Y-59242544I0J-267544D01*
G01*
X118175000Y-60232456D01*
G75*
G02*
X117907456Y-60500000I-267544J0D01*
G01*
X116592544Y-60500000D01*
G75*
G02*
X116325000Y-60232456I0J267544D01*
G01*
X116325000Y-59242544D01*
G75*
G02*
X116592544Y-58975000I267544J0D01*
G01*
G37*
G36*
G01*
X116592544Y-56000000D02*
X117907456Y-56000000D01*
G75*
G02*
X118175000Y-56267544I0J-267544D01*
G01*
X118175000Y-57257456D01*
G75*
G02*
X117907456Y-57525000I-267544J0D01*
G01*
X116592544Y-57525000D01*
G75*
G02*
X116325000Y-57257456I0J267544D01*
G01*
X116325000Y-56267544D01*
G75*
G02*
X116592544Y-56000000I267544J0D01*
G01*
G37*
%TD*%
D16*
%TO.C,C4*%
X97500000Y-59750000D03*
D24*
X97500000Y-67250000D03*
%TD*%
D16*
%TO.C,C3*%
X97500000Y-76500000D03*
D24*
X97500000Y-84000000D03*
%TD*%
D12*
%TO.C,C2*%
X135250000Y-88250000D03*
X135250000Y-83250000D03*
%TD*%
%TO.C,C1*%
X146000000Y-88250000D03*
X146000000Y-83250000D03*
%TD*%
M02*
